<svg width="145" height="55" viewBox="0 0 145 55" fill="none" xmlns="http://www.w3.org/2000/svg">
<path d="M30.4954 7.07071C31.4326 7.97842 32.2631 8.99285 32.97 10.0936L19.6492 23.5674L12.7761 20.527L12.0541 15.7326L18.9271 18.7731L30.4954 7.07071Z" fill="#21A038"/>
<path d="M6.31846 21.1533C6.28606 20.9382 6.25905 20.7237 6.23741 20.5096L2.40742 20.8934C2.43596 21.1707 2.47007 21.4499 2.51232 21.7305C2.84088 23.9231 3.59335 26.0301 4.72658 27.9306C5.85982 29.8312 7.3515 31.4879 9.11607 32.8057L11.4012 29.6681C10.0432 28.6558 8.89512 27.3823 8.02284 25.9211C7.15057 24.4598 6.57134 22.8395 6.31846 21.1533Z" fill="url(#paint0_linear_0_41398)"/>
<path d="M17.0606 6.4072C17.2727 6.37524 17.4848 6.35136 17.696 6.33028L17.3058 2.44761C17.0313 2.47554 16.7559 2.5103 16.48 2.55187C14.3152 2.87514 12.2367 3.62854 10.3636 4.76884C8.49037 5.90914 6.8595 7.41388 5.56457 9.19664L8.67267 11.5234C9.66678 10.1515 10.9196 8.99324 12.3591 8.11522C13.7986 7.23721 15.3963 6.65675 17.0606 6.4072Z" fill="url(#paint1_linear_0_41398)"/>
<path d="M20.9304 32.0873C20.7183 32.1193 20.5073 32.151 20.2939 32.1657L20.6839 36.0471C20.9594 36.0199 21.2353 35.9856 21.5113 35.944C23.675 35.6204 25.7524 34.8669 27.6245 33.7265C29.4966 32.5862 31.1263 31.0814 32.42 29.2989L29.3173 26.9727C28.3229 28.344 27.0701 29.5017 25.6309 30.3794C24.1916 31.2571 22.5942 31.8376 20.9304 32.0873Z" fill="url(#paint2_linear_0_41398)"/>
<path d="M24.5387 7.57011L27.382 4.69443C24.0919 2.73236 20.2396 1.9747 16.4727 2.54885L17.0535 6.40549C19.6045 6.01803 22.2144 6.42414 24.5387 7.57011Z" fill="url(#paint3_linear_0_41398)"/>
<path d="M35.4694 16.7634C35.3203 15.7598 35.0829 14.7713 34.7599 13.8099L31.6122 16.9929C31.6294 17.1071 31.6466 17.2211 31.664 17.3365C31.9351 19.1306 31.8312 20.961 31.3591 22.7089C30.8869 24.4568 30.057 26.0832 28.9231 27.4828L31.9128 29.9629C33.3866 28.1415 34.4648 26.0253 35.0775 23.7515C35.6903 21.4776 35.8237 19.0967 35.4694 16.7634Z" fill="#21A038"/>
<path d="M20.926 32.0875C19.1555 32.3548 17.3478 32.2422 15.62 31.7572C13.8923 31.2721 12.2829 30.4253 10.8962 29.2717L8.46055 32.2885C10.2644 33.7887 12.358 34.8893 14.6055 35.5192C16.853 36.1489 19.2042 36.2937 21.5068 35.9441L20.926 32.0875Z" fill="url(#paint4_linear_0_41398)"/>
<path d="M9.06479 11.0071L6.07648 8.52687C4.60214 10.348 3.5234 12.4641 2.91023 14.7381C2.29707 17.0121 2.16318 19.3931 2.51724 21.7267L6.32397 21.1534C6.05298 19.3593 6.15692 17.5289 6.62906 15.7811C7.10123 14.0332 7.93105 12.4068 9.06479 11.0071Z" fill="url(#paint5_linear_0_41398)"/>
<path d="M95.9894 30.2742L96.9648 28.4794L94.973 28.1622C94.0521 27.9503 93.2189 27.4661 92.5739 26.7702L92.8413 26.8215C94.0485 27.0471 95.2841 26.5704 96.0262 25.592L97.2535 23.8986C96.5697 23.7734 95.8946 23.6026 95.2339 23.3874C94.6149 23.1094 94.1023 22.6454 93.7601 22.0608C93.2896 21.3158 92.5391 20.8002 91.6754 20.6287C91.3398 20.5644 90.9932 20.5568 90.6493 20.597C90.7242 20.4522 90.7935 20.3063 90.8525 20.1524C91.2018 19.0691 91.1039 17.8884 90.5846 16.8746L89.4373 14.7375L88.101 16.7227C87.8942 17.0015 87.621 17.2263 87.2995 17.3652C87.2886 16.5609 87.0484 15.7835 86.5977 15.119C85.848 13.9843 84.6705 13.204 83.3313 12.959C83.0982 12.9142 82.8616 12.8866 82.6275 12.8771L80.7621 12.885C81.0313 12.3114 81.3861 11.7837 81.8176 11.3179L83.1032 9.96599L80.5666 9.72136L80.0974 7.86185L78.401 8.40356L77.2482 6.72556L75.5563 7.858L74.1731 6.76694L73.0568 8.2811L70.6196 7.51875L71.3127 9.25604C71.5413 9.84844 71.6757 10.47 71.7136 11.1025L70.0713 10.4395L70.0144 10.4286C69.782 10.3486 69.5463 10.2857 69.3073 10.2399C67.9726 9.97212 66.5899 10.2614 65.4736 11.0382C64.8024 11.4934 64.2781 12.1361 63.9738 12.8917C63.7368 12.6516 63.564 12.353 63.4739 12.0232L62.9645 9.66636L61.0954 11.2308C60.2493 11.9828 59.7339 13.0401 59.6531 14.1688C59.651 14.3336 59.6614 14.4948 59.6774 14.6571C59.3728 14.4925 59.048 14.3713 58.7124 14.307C57.8465 14.1468 56.9586 14.3481 56.2458 14.8661C55.7185 15.2781 55.0762 15.5207 54.4028 15.5566C53.7005 15.5281 52.9987 15.4349 52.309 15.2789L52.7945 17.3303C53.122 18.5138 54.0936 19.4139 55.2986 19.6509L55.566 19.7022C54.7228 20.1008 53.781 20.2446 52.8574 20.1088L50.8825 19.6415L51.1247 21.6699C51.2928 23.2534 52.3737 24.5991 53.8886 25.0961C53.5362 26.0725 52.7321 26.8208 51.7346 27.1014L50.0909 27.429L50.6363 29.0141C51.1115 30.1964 52.1578 31.0459 53.4059 31.2735C53.7301 31.3356 54.061 31.3637 54.3926 31.3566C54.4057 31.7189 54.4416 32.0855 54.491 32.4431C54.6314 33.2485 54.4914 34.071 54.1006 34.7866L53.0631 36.1978L54.6346 36.9534C54.9859 37.121 55.364 37.2407 55.7452 37.3138C56.0183 37.3662 56.2911 37.389 56.5705 37.3777C56.7727 37.3693 56.977 37.3495 57.1732 37.3105C57.3106 37.7321 57.5104 38.1361 57.7519 38.5068C58.6017 39.7964 59.9978 40.6363 61.9037 41.0018L63.2633 41.2626L60.235 41.8909L62.1609 43.3515C62.9392 43.9373 63.7423 44.4864 64.5711 44.9935L64.1731 45.6838L64.8427 46.1603C65.9686 46.8717 67.2088 47.3868 68.5085 47.6832L70.2551 48.0182C71.5666 48.2225 72.9047 48.1961 74.2082 47.9506L74.9827 47.7569L74.8741 46.9694C75.8453 46.7958 76.808 46.5735 77.7568 46.3012L80.039 45.689L77.4581 44.0144L78.8234 44.2762C80.7294 44.6418 82.3461 44.362 83.6037 43.4943C83.971 43.2403 84.3003 42.9377 84.5839 42.5969C84.7518 42.7058 84.9343 42.7998 85.119 42.8824C85.3744 42.9962 85.6364 43.076 85.9094 43.1283C86.2906 43.2014 86.6873 43.2245 87.0746 43.2044L88.8197 43.0849L88.3897 41.4217C88.2649 40.5956 88.4389 39.7501 88.8764 39.0376C89.0624 38.7134 89.2267 38.3793 89.374 38.0418C89.6795 38.1713 90.0029 38.2687 90.3272 38.3308C91.5823 38.5834 92.8787 38.1595 93.7495 37.2176L94.8279 35.9616L93.4438 35.0592C92.6208 34.4294 92.1505 33.4369 92.1845 32.3993C93.7768 32.4923 95.2778 31.6477 96.021 30.2331L95.9894 30.2742Z" fill="white"/>
<path d="M79.2389 33.3219L65.5848 30.7032L64.6029 35.8234C64.1992 37.9285 65.4672 39.5283 67.7144 39.9593C69.5919 40.3193 70.0726 40.4882 70.6337 41.3153C71.1622 40.9272 71.8336 40.7788 72.4801 40.9145L72.4954 40.8349L73.183 39.5865L72.6029 38.6435C72.2896 38.6779 71.9759 38.6531 71.6719 38.5771C71.2122 38.483 70.7658 38.3502 70.3338 38.173L70.1916 38.1457C70.129 38.1337 70.129 38.1337 70.1054 38.1645L69.9928 38.2905L69.7901 38.517L69.5073 38.392L68.2521 37.8327L68.0133 38.0937L68.0068 38.1278L68.1321 38.3347L68.0203 38.5491C67.8474 38.805 67.6286 39.0226 67.371 39.1974L66.9734 39.4868L66.7438 39.0535L66.5754 38.7321C66.3965 38.3734 66.4181 37.9529 66.6257 37.6093L66.2264 37.692L66.1313 37.2963L66.0894 37.0227C65.9597 36.4376 66.2561 35.8456 66.7937 35.5948L67.9611 35.2289L68.9298 35.621C68.9483 35.5244 69.0776 35.1893 69.1224 35.1094L69.0655 35.0985L68.455 35.2056L67.9603 34.7096C67.8683 34.574 67.8987 34.3852 68.0411 34.2887L68.7386 33.5731L67.6949 31.6033L69.5937 32.8051L69.7687 32.6617L70.1186 32.3749L70.384 32.7443C70.453 32.846 70.4902 32.9593 70.4957 33.0842C71.0211 33.4209 71.9458 34.2884 71.8239 35.3857L71.4745 35.4544C71.5034 35.5188 71.546 35.5742 71.6031 35.6146L73.0767 36.0506L73.2208 36.037C73.4953 35.9894 73.7783 35.9906 74.0524 36.0372C74.3255 36.0896 74.5809 36.2035 74.8026 36.3699C74.9184 36.3508 75.0422 36.3509 75.1571 36.3671L75.2311 36.3813C76.0332 36.5351 76.3215 37.2157 76.5484 37.7546L76.6675 38.0252C76.8699 38.4769 77.1285 39.1282 77.1412 39.1541L77.2571 39.4417L77.0064 39.6414C76.7707 39.8557 76.4476 39.9413 76.1347 39.8813C76.0426 39.8695 75.9516 39.852 75.8615 39.8289C75.7852 39.7966 75.71 39.7585 75.6368 39.7091C75.6215 39.7887 75.6029 39.8855 75.5422 39.9564L75.0515 41.2543C76.659 41.2381 78.0174 40.0595 78.2582 38.466L79.2389 33.3219ZM65.6474 30.2846L76.2804 32.3239C75.9353 31.7859 75.9129 31.1033 76.2209 30.5429C76.0918 30.4474 75.9726 30.3302 75.8728 30.2049C75.3986 30.4324 73.9305 31.1064 73.5785 31.2807L73.5015 31.3131L69.4675 29.7727L69.3822 29.7563C69.2445 29.7359 69.1079 29.7097 68.9725 29.6777C68.8967 29.8579 68.7066 29.9571 68.5189 29.9211L68.4506 29.908C68.2363 29.8256 68.1231 29.5857 68.1998 29.3703L68.2173 29.2793C67.751 28.7888 67.6238 28.0684 67.8903 27.4471L67.9045 27.3731L67.9758 27.3396C67.9758 27.3396 68.0664 27.298 68.1865 27.2561L67.8937 27.1528C67.7843 27.1082 67.7299 26.9917 67.7688 26.8811C67.8077 26.7706 67.9243 26.7163 68.0349 26.7551L68.0405 26.7562L68.7412 27.0086L69.2972 24.4787L70.5907 23.547L70.9914 25.0867L69.8168 27.3978L70.4343 27.6224C70.5438 27.6669 70.5981 27.7835 70.5592 27.8941C70.5225 27.9932 70.4241 28.045 70.3216 28.0254L70.2875 28.0189L69.7862 27.8343L69.7785 27.8741C69.8158 27.9874 69.8859 28.0835 69.9841 28.1554L73.1546 28.8164L74.1219 28.1704C73.5433 27.8352 73.2043 27.2039 73.2558 26.5355C72.887 26.3055 72.6194 25.9475 72.5105 25.5314C72.4257 25.1435 72.4747 24.7341 72.6547 24.3794C72.1923 24.0842 71.795 23.6954 71.4994 23.2376L66.7773 22.332C66.8981 22.9333 66.9154 23.5499 66.8236 24.1518L65.6474 30.2846Z" fill="#FCE527"/>
<path d="M69.4964 33.7743C69.4281 33.7612 69.3557 33.8004 69.3368 33.8676L69.3358 33.8732C69.3159 33.9461 69.3597 34.0253 69.4326 34.0452L69.4383 34.0463C69.5179 34.0615 69.5868 34.0099 69.601 33.9359C69.6163 33.8562 69.5702 33.7885 69.4964 33.7743Z" fill="#222220"/>
<path d="M69.4987 33.7684C69.5043 33.7695 69.5032 33.7751 69.5032 33.7751C69.509 33.7762 69.5101 33.7706 69.5157 33.7716L69.4987 33.7684ZM77.0052 44.8814L76.2781 44.4293L76.6502 43.6572L77.0594 42.8155C75.8783 43.1612 74.6667 43.3888 73.4428 43.4963C72.8434 43.5464 72.4196 43.5418 72.4196 43.5418L72.3094 44.1164C71.5878 44.0961 70.8704 44.0233 70.1581 43.8926L70.0956 43.8806C69.3855 43.7386 68.692 43.5407 68.014 43.2927L68.1231 42.7238C68.1231 42.7238 67.7231 42.5644 67.1848 42.2961C66.0875 41.7434 65.0461 41.0837 64.0767 40.3256L64.1398 41.2579L64.2055 42.114L63.3569 42.2638L62.4414 42.4245C63.4967 43.258 64.6227 43.9989 65.8093 44.6394L65.3507 45.4008C66.6214 46.1871 68.0401 46.7246 69.5144 46.972L69.5486 46.9786C71.0098 47.2942 72.5267 47.3197 73.9982 47.0592L73.8594 46.1833C75.1932 46.0261 76.5134 45.7544 77.8021 45.3704L77.0052 44.8814ZM63.3817 42.6578L64.7378 42.4756L64.5967 41.1509C65.3534 41.7265 66.1516 42.2395 66.9924 42.6838L66.0393 44.2706C65.1053 43.8201 64.2125 43.2773 63.3817 42.6578ZM69.6431 46.5779L69.619 46.5497C68.3685 46.304 67.1553 45.8943 66.0125 45.333L67.1798 43.3981C68.0899 43.8203 69.049 44.14 70.0377 44.3355L70.1004 44.3475C71.0924 44.526 72.1006 44.5895 73.1023 44.5339L73.4709 46.7634C72.1937 46.8724 70.9026 46.8076 69.6431 46.5779ZM73.8156 45.7973L73.8188 45.7803L73.5204 43.9535C74.4659 43.8517 75.3972 43.6706 76.3131 43.4156L75.692 44.5941L76.9004 45.2742C75.8926 45.5468 74.8556 45.7255 73.8156 45.7973ZM76.4119 11.0994C77.7041 11.3118 78.8929 11.9409 79.7968 12.887C80.1233 12.0766 80.5912 11.3288 81.1813 10.681L79.8615 10.5813L79.4663 9.01318L78.0346 9.43464L77.0164 7.94759L75.5201 8.95238L74.3459 8.03118L73.3986 9.34181L72.1355 8.9462C72.4443 9.76632 72.6023 10.6342 72.6058 11.5078C73.7954 10.9633 75.1326 10.8187 76.4119 11.0994ZM73.2457 9.83153L73.5966 9.94011L73.8123 9.64528L74.4472 8.76431L75.2006 9.35708L75.4932 9.58426L75.8008 9.39551L76.8811 8.65304L77.6099 9.74246L77.8225 10.0487L78.1785 9.94589L79.092 9.67281L79.3616 10.7272L79.4531 11.081L79.8191 11.1099L80.1681 11.1356C79.9716 11.4223 79.7899 11.7237 79.6299 12.0351C77.778 10.5887 75.3373 10.1206 73.0817 10.7792C73.0482 10.4307 72.9909 10.0835 72.9144 9.74441L73.2457 9.83153ZM91.0341 26.078L90.9164 25.8608C90.1168 24.3095 89.3553 22.8363 87.67 21.9055C87.756 21.8571 87.8409 21.8144 87.9303 21.7785C88.8764 21.4586 89.6388 20.7437 90.0166 19.8193C90.2802 18.9673 90.2025 18.05 89.8009 17.2534L89.3684 16.4331L88.8474 17.2121C88.8376 17.2633 87.9452 18.5019 86.6708 18.2574L86.2954 18.1854C86.535 17.3054 86.3798 16.3613 85.8705 15.603C85.2531 14.6706 84.2789 14.0296 83.1798 13.8247C82.975 13.7855 82.7668 13.7632 82.5623 13.7535L81.6591 13.7572L82.0632 14.5721C82.3751 15.2217 82.5674 16.279 82.0166 16.7219C81.7644 16.8682 81.4914 16.9692 81.2043 17.0203C80.5842 17.1786 79.6918 17.4027 79.5085 18.3585C79.3896 18.9786 79.7487 19.7198 80.5134 20.4386C82.7672 22.5579 84.0325 24.5406 84.3588 26.5614C84.8705 29.6441 83.1681 31.0165 81.6539 31.6226L80.9768 31.8938L81.413 32.4788C81.8078 32.9734 82.3401 33.3349 82.9482 33.5165L83.4658 33.6158C83.995 33.7173 84.5326 33.7437 85.0684 33.6871C84.9007 33.885 84.7068 34.066 84.5047 34.2278C83.5653 34.9737 82.3336 35.2447 81.168 34.9563L80.6616 34.8592L80.5247 35.3579C80.3826 36.068 80.5668 36.7993 81.0188 37.3638C81.1371 37.5163 81.2768 37.6493 81.4321 37.7616C80.433 38.4193 79.7402 39.4484 79.4973 40.6229C79.374 41.2657 79.1038 41.8746 78.7138 42.4014L77.9812 43.1456L78.9939 43.3398C80.6665 43.6606 82.035 43.4453 83.0982 42.6996C83.6517 42.3044 84.1055 41.7839 84.4267 41.1849C84.7032 41.5268 85.053 41.7946 85.4555 41.972C85.6459 42.0557 85.8463 42.1178 86.0512 42.1571C86.3583 42.216 86.6732 42.235 86.9822 42.2234L87.6634 42.1772L87.4946 41.5195C87.3206 40.4894 87.5246 39.4255 88.0674 38.5327C88.3979 37.9473 88.6702 37.3272 88.8765 36.6824C89.3383 37.0424 89.8821 37.2824 90.4578 37.3868C91.4001 37.5793 92.3713 37.282 93.035 36.5893L93.457 36.0804L92.9339 35.7324C91.1797 34.5761 91.1668 32.3676 91.3019 31.2019C91.482 31.2778 91.6653 31.3366 91.8577 31.3794L91.9963 31.518C94.0671 31.9151 95.166 29.9376 95.2119 29.852L95.588 29.1515L94.8086 29.002C93.1811 28.6309 91.7991 27.5636 91.0341 26.078ZM92.1121 30.9445L92.0325 30.9293C91.6161 30.8553 91.2282 30.6629 90.917 30.3791C90.917 30.3791 89.8266 34.4346 92.6487 36.297L92.6455 36.314C92.1237 36.8511 91.3598 37.082 90.628 36.9298C89.7876 36.8218 89.0531 36.3152 88.6529 35.572C88.4846 36.5424 88.1398 37.479 87.6409 38.3271C87.015 39.3454 86.7815 40.5629 86.9863 41.7406C86.7183 41.7541 86.4557 41.7391 86.194 41.6889C86.0347 41.6583 85.873 41.6096 85.727 41.5404C85.0053 41.2132 84.5091 40.54 84.4053 39.7591C84.4053 39.7591 83.7675 43.7304 79.1649 42.8477L79.1308 42.8411C79.6044 42.2478 79.9273 41.5488 80.0645 40.8024C80.8234 37.9221 82.8828 37.8865 82.8828 37.8865C82.3497 37.7134 81.8691 37.4207 81.4729 37.0263C81.1242 36.5995 80.9834 36.0417 81.0757 35.4991C82.396 35.8112 83.7876 35.5059 84.8522 34.6602C85.4903 34.1633 85.9769 33.5016 86.2744 32.7505C85.4346 33.1617 84.4766 33.2669 83.5682 33.0515L83.1018 32.962C82.6165 32.8158 82.1815 32.5318 81.8625 32.1344C83.833 31.3327 85.435 29.6227 84.9146 26.4615C84.4924 23.9268 82.7324 21.7549 80.877 20.0189C80.2602 19.4522 79.933 18.8823 80.0138 18.4612C80.2036 17.4714 81.6142 17.7124 82.3267 17.1353C83.1406 16.4892 82.9653 15.1579 82.529 14.2957C82.6995 14.2989 82.8724 14.3202 83.0374 14.3519C83.9897 14.5227 84.8326 15.0796 85.3615 15.8888C85.9106 16.6548 85.9822 17.6653 85.556 18.5037L85.8513 18.6252C86.0324 18.6954 86.2169 18.7485 86.4093 18.7912L86.5344 18.8152C88.2014 19.1349 89.2873 17.5324 89.2873 17.5324C89.2873 17.5324 90.6433 20.0575 87.7047 21.2633C87.1996 21.4674 86.947 21.708 86.9721 22.0077L86.9759 22.203L87.1571 22.2732C88.9534 23.1485 89.6525 24.6392 90.5454 26.35C91.3888 27.9804 92.9092 29.1568 94.7006 29.5652L94.7347 29.5718C94.7347 29.5718 93.8189 31.2719 92.1121 30.9445Z" fill="#222220"/>
<path d="M89.925 22.6033C90.4924 23.0895 90.9493 23.6904 91.2683 24.3649C91.4965 24.9278 91.8809 25.4144 92.3813 25.7581C92.573 25.8657 92.7884 25.9424 93.0045 25.9838C93.875 26.1508 94.7663 25.8086 95.313 25.1111L95.7848 24.4349L94.9913 24.2356C94.1572 23.9104 93.4629 23.3171 93.0159 22.5413C92.6777 21.9986 92.1315 21.6167 91.5011 21.4899C91.0108 21.4017 90.5102 21.4591 90.0504 21.6423L89.2115 22.0182L89.925 22.6033ZM91.4124 22.045L91.3942 22.0474C91.8778 22.1401 92.2925 22.438 92.5481 22.8586C93.0676 23.7486 93.8807 24.4295 94.8503 24.7865C94.433 25.3022 93.7668 25.5461 93.1114 25.4262C92.9522 25.3957 92.7984 25.3367 92.6546 25.2561C91.793 24.7664 91.736 23.3104 90.2987 22.1618C90.6509 22.017 91.0358 21.9787 91.4124 22.045ZM88.8942 30.0086L88.8851 29.995C89.1386 26.1507 86.934 22.9144 84.217 20.6886C83.9676 20.4816 83.73 20.3063 83.5026 20.1387C84.7051 20.6348 86.0669 20.5774 87.2243 19.9854C87.2243 19.9854 85.2187 20.9397 81.8479 19.0782C82.7191 19.9177 84.4789 21.1989 85.9645 23.0175C89.6352 27.7442 85.7511 30.9276 85.7511 30.9276C87.3111 29.9291 88.1385 28.106 87.8763 26.2743C88.5115 28.0065 88.6161 29.8904 88.1724 31.6809C87.4755 34.6381 85.3203 36.9262 83.2153 38.6755C82.5777 39.2315 82.0778 39.9319 81.7727 40.7228C82.2189 39.9649 82.801 39.2979 83.4943 38.7585C85.7589 36.9455 87.7545 34.9984 88.5971 31.8037C88.6815 32.4097 89.149 34.2159 90.2818 35.076C90.2818 35.076 88.8927 33.8305 88.8942 30.0086ZM62.6799 39.3675C62.5182 38.7348 62.4925 38.0692 62.61 37.4253C62.8188 36.2444 62.5502 35.0308 61.8653 34.0501C62.0512 34.0032 62.2302 33.9314 62.3964 33.8335C63.0252 33.4763 63.4669 32.8649 63.5976 32.1528L63.6605 31.6398L63.1486 31.5416C61.9657 31.3738 60.9206 30.672 60.3238 29.6315C60.1959 29.4065 60.0884 29.1676 60.0001 28.9206C60.477 29.1713 60.9862 29.3456 61.5153 29.4471L62.033 29.5464C62.6652 29.6028 63.2991 29.4648 63.8488 29.1515L64.4706 28.7693L63.9418 28.2668C62.7536 27.1424 61.6853 25.2388 63.3013 22.5641C64.3487 20.8243 66.26 19.439 69.1606 18.3084C70.1402 17.9065 70.7391 17.3666 70.8581 16.7465C71.0414 15.7907 70.3123 15.2557 69.7776 14.876C69.5299 14.7222 69.3136 14.5274 69.1334 14.2982C68.7797 13.6818 69.3541 12.7479 69.8854 12.2836L70.5908 11.6816L69.7474 11.3429C69.5548 11.2705 69.3522 11.2199 69.1474 11.1806C68.0445 10.9337 66.8931 11.1552 65.9585 11.7841C65.1945 12.2923 64.6887 13.1154 64.5789 14.0263L64.2375 13.9608C62.9575 13.7154 62.6141 12.2457 62.6022 12.1844L62.4064 11.268L61.7011 11.87C61.0389 12.4627 60.6273 13.2861 60.5571 14.1752C60.5661 15.1738 61.0042 16.1189 61.7648 16.7662C61.8347 16.8326 61.9034 16.9048 61.9597 16.9804C60.0528 17.2047 58.797 18.3086 57.4803 19.4541L57.2896 19.618C56.0292 20.7153 54.3447 21.1944 52.6954 20.937L51.916 20.7875L52.0119 21.5787C51.9945 21.6697 52.3065 23.9179 54.3831 24.3161L54.4855 24.3357C54.68 24.3671 54.8721 24.3804 55.0675 24.3765C54.764 25.4981 53.9327 27.5565 51.8695 27.9806L51.2548 28.1105L51.4585 28.7393C51.8189 29.6283 52.6113 30.264 53.5578 30.4337C54.1314 30.5496 54.7197 30.5267 55.2819 30.3633C55.235 31.0385 55.2585 31.7154 55.349 32.3816C55.523 33.4119 55.319 34.4757 54.7762 35.3684L54.3761 35.917L54.9919 36.212C55.2746 36.337 55.5742 36.4357 55.8815 36.4946C56.0863 36.5339 56.2954 36.5505 56.5033 36.5432C56.9428 36.5271 57.3668 36.4079 57.7502 36.1924C57.8271 36.8678 58.0561 37.5193 58.4242 38.0912C59.1417 39.1785 60.3345 39.879 62.0003 40.2045L63.013 40.3987L62.6799 39.3675ZM62.1296 39.5922C57.527 38.7095 58.398 34.7831 58.398 34.7831C58.0126 35.47 57.3026 35.912 56.5111 35.9489C56.3498 35.9593 56.1816 35.9447 56.0223 35.9141C55.7606 35.864 55.5111 35.7808 55.2728 35.6701C55.8987 34.6517 56.1322 33.4343 55.9274 32.2566C55.7777 31.2841 55.8096 30.2875 56.0122 29.3236C55.3654 29.8662 54.4956 30.065 53.6748 29.8545L53.6464 29.8491C52.9046 29.7186 52.2815 29.2157 51.9954 28.5237C55.3062 27.8376 55.7935 23.6664 55.7935 23.6664C55.3994 23.815 54.9679 23.8502 54.5537 23.7649L54.4911 23.7529C52.7844 23.4255 52.5624 21.5072 52.5624 21.5072L52.5966 21.5138C54.4109 21.8028 56.2643 21.2735 57.651 20.0708C59.1078 18.8106 60.3145 17.6854 62.3072 17.5367L62.5015 17.5386L62.5773 17.3584C62.6841 17.0782 62.5385 16.7612 62.172 16.396C59.888 14.1884 62.082 12.3442 62.082 12.3442C62.082 12.3442 62.4867 14.2327 64.165 14.5545L64.2446 14.5698C64.4392 14.6011 64.6302 14.6201 64.8244 14.622L65.1437 14.6184C65.0521 13.6806 65.4983 12.7693 66.2918 12.2609C67.0826 11.7048 68.0717 11.4993 69.0196 11.6928C69.1846 11.7245 69.3532 11.7686 69.5127 11.8287C68.7986 12.4762 68.1376 13.6471 68.6559 14.5428C69.0972 15.3176 70.5026 15.6166 70.3084 16.6293C70.2277 17.0503 69.7413 17.4643 68.9576 17.7681C66.5858 18.6935 64.1472 20.0602 62.8228 22.2599C61.17 25.0043 62.0224 27.2027 63.5598 28.6595C63.1174 28.905 62.607 29.0135 62.1023 28.9699L61.63 28.8793C60.7065 28.7434 59.8554 28.2912 59.2273 27.5985C59.2258 28.4064 59.4331 29.2012 59.8363 29.8978C60.5136 31.0717 61.6981 31.8769 63.0404 32.0753C62.9253 32.6137 62.5882 33.0798 62.1063 33.3473C61.5922 33.5671 61.0374 33.6613 60.4782 33.6249C60.4782 33.6249 62.3862 34.4095 62.0405 37.3809C61.8918 38.1251 61.9332 38.894 62.1536 39.6204L62.1296 39.5922Z" fill="#222220"/>
<path d="M55.4846 18.784L55.4903 18.7851C55.7065 18.8266 55.9349 18.835 56.1528 18.8061C56.7448 18.6718 57.282 18.362 57.7023 17.9235C58.2424 17.4136 58.8892 17.0246 59.5962 16.7826L60.4745 16.5087L59.8342 15.8492C59.4748 15.5089 59.031 15.2704 58.5485 15.172C57.9159 15.0565 57.2673 15.2093 56.7511 15.5941C56.0556 16.1449 55.1843 16.4437 54.2947 16.4383L53.4849 16.3243L53.6673 17.126C53.9172 17.9762 54.6152 18.6114 55.4846 18.784ZM57.0694 16.0562C57.4568 15.7589 57.9523 15.6356 58.4359 15.7284C58.8046 15.8051 59.1469 15.9887 59.4216 16.2478C57.6468 16.7981 57.0471 18.1104 56.0882 18.2509C55.9304 18.2738 55.7657 18.2718 55.6064 18.2412C54.9465 18.1146 54.4132 17.6348 54.2173 16.9956C55.2502 17.0227 56.2576 16.6909 57.0694 16.0562ZM57.8779 25.8965C58.1282 24.0687 58.9167 22.356 60.1533 20.983C59.2321 22.5876 59.3263 24.5876 60.4062 26.0923C60.4062 26.0923 57.9697 21.6966 63.1342 18.6644C65.1872 17.5246 67.2905 16.9842 68.4105 16.5266C64.5901 17.009 63.0799 15.3804 63.0799 15.3804C63.9362 16.3586 65.1745 16.9146 66.4752 16.8986C66.202 16.9701 65.9151 17.0507 65.6081 17.1452C62.2593 18.2135 58.9966 20.4014 57.8271 24.07L57.8326 24.0415C56.4201 27.5928 54.6687 28.2361 54.6687 28.2361C56.0325 27.8606 57.1419 26.3511 57.4388 25.8181C57.0273 29.1014 58.178 31.6519 59.6123 34.1684C60.0511 34.925 60.3509 35.761 60.4851 36.6302C60.4874 35.7872 60.282 34.9516 59.8887 34.2037C58.5802 31.7998 57.43 28.8777 57.8779 25.8965ZM73.2893 21.7504C73.5255 21.5951 73.8217 21.5576 74.094 21.6452L73.8878 22.7204C73.8308 22.9867 73.7134 23.2297 73.5378 23.4378L74.613 23.644C74.527 23.3857 74.5078 23.1165 74.5534 22.848L74.7596 21.7728C75.0392 21.7911 75.3006 21.9356 75.4625 22.1672L75.6055 21.4219L73.4322 21.0051L73.2893 21.7504ZM73.8295 16.5041L73.8181 16.5019C73.9558 16.6759 74.1274 16.8267 74.3249 16.9354L74.4494 17.0241L74.5847 16.3187L73.4232 15.5473C73.4181 15.9121 73.564 16.2585 73.8295 16.5041ZM76.8288 17.0735L76.822 17.078C77.1596 16.9481 77.4232 16.6802 77.5535 16.3395L76.189 16.6264L76.0548 17.3262L76.1976 17.2886C76.4213 17.2607 76.6366 17.184 76.8288 17.0735Z" fill="#222220"/>
<path d="M79.6387 14.6553C79.8427 13.5915 78.2339 12.292 76.2597 11.9134C74.2855 11.5347 72.3102 12.1468 72.1062 13.2107L72.0957 13.48L72.0138 18.183L71.1345 18.4922L68.8447 19.2681C68.8447 19.2681 68.338 19.4187 68.0945 19.5195C67.206 19.9389 66.8948 20.6696 67.281 21.0858C67.5431 20.3338 68.3293 19.8948 69.11 20.0682C69.761 20.2107 70.3065 20.6574 70.5726 21.2687C70.6601 21.4272 70.7342 21.5947 70.7968 21.7601C70.8792 21.9765 70.966 22.17 71.0538 22.3579L65.7857 21.3475C66.0832 22.195 66.1745 23.1031 66.0623 23.9958L63.8179 35.6986C63.2724 38.5431 65.1948 40.2979 67.5673 40.7529C69.3879 41.1021 69.6488 41.0636 70.458 42.257C71.6514 41.4477 71.8797 41.58 73.7003 41.9291C76.0555 42.3808 78.5102 41.4536 79.0535 38.6205L81.2957 26.9292C81.5217 26.0583 81.9424 25.2483 82.5324 24.5711L77.2073 23.5498C77.3584 23.4078 77.5107 23.26 77.6673 23.0895C77.7923 22.9601 77.9231 22.8318 78.0573 22.716C78.5364 22.2476 79.2084 22.0344 79.866 22.1427C80.6555 22.2706 81.2234 22.9693 81.1888 23.7648C81.7061 23.5278 81.6972 22.6827 81.0124 22.0088C80.8303 21.8205 80.4142 21.4988 80.4142 21.4988L78.5974 19.8999L77.895 19.2874L79.5586 14.8877L79.6387 14.6553ZM72.7681 13.8803L75.3644 15.3515L74.5287 19.7094L72.6935 18.2367L72.7681 13.8803ZM66.7761 22.3338L71.5607 23.2514C71.8563 23.7092 72.2526 24.1036 72.7162 24.3931C72.536 24.7479 72.487 25.1573 72.5719 25.5452C72.6809 25.9613 72.9484 26.3193 73.3171 26.5493C73.2656 27.2177 73.6046 27.849 74.1833 28.1841C73.7754 28.4657 73.3775 28.7255 73.2159 28.8302L70.0455 28.1691C69.9472 28.0971 69.8771 28.0012 69.8399 27.8878L69.8475 27.848L70.3489 28.0326L70.3831 28.0392C70.4854 28.0588 70.5839 28.0069 70.6205 27.9078C70.6594 27.7973 70.6051 27.6807 70.4957 27.6362L69.8782 27.4116L71.0528 25.1004L70.652 23.5608L69.3586 24.4925L68.8026 27.0224L68.102 26.77C67.9925 26.7255 67.8759 26.7798 67.8314 26.8892L67.8303 26.8949C67.7913 27.0054 67.8456 27.122 67.9551 27.1666L68.2478 27.2699C68.1278 27.3118 68.0451 27.3431 68.0373 27.3534L67.966 27.3869L67.9518 27.4609C67.6851 28.0821 67.8181 28.8037 68.2787 29.2931L68.2613 29.3841C68.1845 29.5995 68.2978 29.8394 68.5121 29.9217L68.5803 29.9348C68.7681 29.9708 68.9581 29.8717 69.034 29.6915C69.1694 29.7234 69.3003 29.7485 69.4379 29.769L69.5231 29.7854L73.5482 31.3418L73.6253 31.3094C74 31.1394 75.4421 30.4781 75.9196 30.2336C76.0194 30.3588 76.1385 30.4761 76.2677 30.5716C75.9597 31.1318 75.9821 31.8144 76.3272 32.3525L65.6429 30.3035L66.8224 24.1534C66.9143 23.5518 66.8969 22.935 66.7761 22.3338ZM75.619 29.8632C75.1256 30.099 73.9132 30.6686 73.474 30.8675L69.8173 29.482L69.837 29.3796C69.9486 29.1356 70.0329 28.8804 70.0889 28.6198L73.265 29.282L73.3395 29.2315C73.4006 29.19 74.5941 28.4103 75.2142 27.9453C75.318 28.1421 75.45 28.315 75.6102 28.4637C75.4297 28.9127 75.4337 29.4148 75.619 29.8632ZM69.4293 27.9683L69.4261 27.9854C69.4809 28.1611 69.5798 28.3216 69.7159 28.4422C69.6655 28.6743 69.5991 28.8975 69.5157 29.1174C69.5059 29.1686 69.496 29.2199 69.4464 29.2634L69.4311 29.3431C69.1693 29.2929 68.921 29.2039 68.6859 29.0762C68.2778 28.7443 68.1177 28.1945 68.2898 27.6967C68.522 27.5938 68.7727 27.5475 69.0238 27.5603C69.2355 27.595 69.3992 27.7561 69.4293 27.9683ZM69.1818 27.1363L69.706 24.742L70.384 24.2821L70.5924 25.0712L69.4659 27.2853L69.1818 27.1363ZM73.4357 41.0939L72.8895 40.9891L73.5835 39.6771C73.689 39.4968 73.3842 39.1788 73.2788 38.9286C73.5855 39.2057 73.9079 39.4621 74.2449 39.7037C74.2362 39.7492 73.4357 41.0939 73.4357 41.0939ZM75.1967 39.8155L75.1588 39.767L74.5684 41.2463C74.3807 41.2103 74.1739 41.2119 73.9897 41.1883L74.5863 39.7692C74.7613 39.3485 73.6088 38.9919 73.1954 38.0101C72.7531 38.2556 72.2356 38.3097 71.7561 38.1647C71.3248 38.0761 70.9069 37.9487 70.5021 37.7827C70.4294 37.7627 70.3554 37.7486 70.2804 37.7401C70.1062 37.6949 69.918 37.7532 69.7975 37.8893L69.6849 38.0152L68.1387 37.3117L67.6231 37.9088C67.5431 37.9878 67.5305 38.1151 67.5948 38.2101L67.68 38.3503C67.5316 38.5401 67.358 38.7073 67.1613 38.8407L66.9791 38.499C66.8539 38.1682 66.944 37.7904 67.2023 37.5509L68.0456 36.5977L69.3661 37.0634L69.2483 36.5395C69.0861 35.8477 69.6745 35.1171 69.8095 34.6593C69.7822 34.8015 69.6288 34.8016 69.4809 34.7732L69.0883 34.6979C69.0609 34.6868 69.0268 34.6803 68.9973 34.6805L68.5849 34.8314L68.3461 34.5084C68.317 34.4143 68.3536 34.3153 68.434 34.2657L69.2504 33.6378L68.6317 32.5577L69.6605 33.3448L70.0804 33.0007C70.1539 33.1092 70.0683 33.3405 70.0683 33.3405C70.854 33.7036 71.2845 34.5646 71.0981 35.4137L71.0665 35.5787C71.1453 35.7825 71.3034 35.9426 71.4983 36.0331L73.0106 36.4824C73.3364 36.4446 73.6614 36.442 73.9875 36.4633C74.2607 36.5157 74.5173 36.6535 74.7165 36.8449C74.8389 36.7918 74.9784 36.7713 75.1103 36.7907L75.1616 36.8005C75.8499 36.9326 76.02 37.614 76.2916 38.197C76.4951 38.643 76.7571 39.3067 76.7571 39.3067C76.6185 39.4453 76.4236 39.5081 76.2302 39.471C76.1609 39.4636 76.0982 39.4516 76.0311 39.4328C75.3176 39.1545 75.502 37.609 75.1038 37.4088L75.0356 37.3957C74.9559 37.3804 74.8733 37.4117 74.8193 37.4781C74.9134 38.0329 74.7592 38.2215 74.8912 38.6716C74.9979 38.9456 75.1488 39.2046 75.3347 39.435C75.3347 39.435 75.2626 39.657 75.1967 39.8155ZM67.1935 36.7352L67.1821 36.733L67.2166 36.9225C67.1417 37.0673 66.5756 37.1888 66.5756 37.1888L66.5099 36.9167C66.4307 36.5299 66.6173 36.1411 66.975 35.9678L67.9344 35.6092L68.8132 35.9783C68.7727 36.1592 68.7958 36.3465 68.8755 36.5151L67.9489 36.1487L67.3036 36.4378C67.1973 36.5 67.1563 36.6219 67.1935 36.7352ZM78.2673 38.4756C78.0265 40.0692 76.6623 41.2468 75.0503 41.2562L75.5759 39.9295C75.5912 39.8499 75.6382 39.7586 75.6649 39.6812C75.738 39.7305 75.8133 39.7686 75.8897 39.8009C75.9796 39.8241 76.0706 39.8415 76.1628 39.8533C76.4757 39.9133 76.7988 39.8278 77.0345 39.6135L77.2852 39.4138L77.1592 39.1479C77.1592 39.1479 76.8937 38.4717 76.6857 38.0189L76.5722 37.7494C76.3451 37.2104 76.0569 36.5298 75.2547 36.376L75.1808 36.3618C75.0659 36.3457 74.9421 36.3455 74.8263 36.3646C74.6046 36.1983 74.3492 36.0844 74.0762 36.0321C73.802 35.9853 73.5191 35.9842 73.2446 36.0318L73.1003 36.0455L71.6267 35.6095C71.5696 35.569 71.5272 35.5137 71.4983 35.4492L71.8477 35.3805C71.965 34.2764 71.0458 33.41 70.5195 33.079C70.514 32.9541 70.4767 32.8407 70.4078 32.7391L70.1424 32.3697L69.7925 32.6565L69.6175 32.7998L67.6783 31.5314L68.7221 33.5011L68.0245 34.2167C67.8889 34.3087 67.8472 34.4954 67.9437 34.6377L68.4385 35.1337L69.0489 35.0266L69.1058 35.0375C69.0894 35.1229 68.9603 35.4579 68.9133 35.5492L67.9561 35.1886L66.7888 35.5545C66.2319 35.8135 65.9368 36.4293 66.0881 37.0246L66.1585 37.3035L66.2537 37.6992L66.6529 37.6166C66.4454 37.9602 66.4237 38.3807 66.6027 38.7394L66.77 39.0665L66.9938 39.4987L67.3914 39.2092C67.6491 39.0345 67.8677 38.8169 68.0407 38.561L68.1526 38.3466L68.0271 38.1397L68.0337 38.1055L68.2725 37.8447L69.5278 38.4038L69.8105 38.5289L70.0201 38.2977L70.1326 38.1719C70.138 38.1434 70.1391 38.1377 70.2189 38.153L70.361 38.1802C70.7931 38.3574 71.2394 38.4903 71.6935 38.5833C71.9974 38.6592 72.3112 38.6841 72.6245 38.6498L73.1934 39.6201L72.5057 40.8684L72.4905 40.948C71.844 40.8123 71.1727 40.9608 70.644 41.3489C70.0774 40.5207 69.5966 40.3518 67.7249 39.9928C65.4777 39.5618 64.2106 37.9562 64.6132 35.8569L65.5952 30.7367L79.2493 33.3554L78.2673 38.4756ZM81.2153 25.103C80.8762 25.6101 80.6376 26.1778 80.4992 26.7764L79.7638 30.6109C79.2896 30.408 79.0005 29.9161 79.0635 29.4032L79.0973 29.2268L78.9266 29.1941C78.6351 29.1145 78.3883 28.9256 78.2238 28.6759C78.0291 28.3377 77.9624 27.9474 78.0299 27.5651C77.7088 27.9165 77.6334 28.4328 77.8458 28.8629C78.0143 29.1842 78.3026 29.4342 78.6465 29.5473C78.6223 30.2268 79.0533 30.8404 79.6968 31.0523L79.3367 32.9297L76.9474 32.4715C76.3827 32.0329 76.2639 31.2373 76.666 30.648L76.7962 30.4606L76.601 30.3406C75.9642 29.9707 75.7293 29.1649 76.0787 28.5122L76.1569 28.3502L76.0118 28.2457C75.481 27.7841 75.2809 27.0439 75.5085 26.3797C75.1345 26.6383 74.9621 27.1066 75.0848 27.543C74.946 27.652 74.7686 27.7772 74.5709 27.9163C73.9976 27.6766 73.6644 27.076 73.7584 26.4629L73.7857 26.3206L73.6647 26.2443C73.3373 26.0754 73.0987 25.7819 72.9948 25.4316C72.9368 25.1492 72.9709 24.849 73.0972 24.59C73.2065 24.6346 73.3171 24.6735 73.4287 24.7068C73.5414 24.7342 73.6608 24.7571 73.7757 24.7733C74.6974 24.9501 75.6499 24.7198 76.3952 24.155L81.2153 25.103ZM78.2728 20.516L79.0968 21.2638L79.3038 21.445C78.7952 21.4832 78.3068 21.6609 77.89 21.9584L77.8436 21.9849C77.7476 22.055 77.6573 22.1262 77.5659 22.203L77.5095 22.2512C77.4181 22.328 77.3312 22.4115 77.249 22.502L77.2051 22.5467C77.1035 22.6451 77.0056 22.7562 76.9077 22.8671C76.1925 23.7976 75.0535 24.2929 73.8881 24.1874C72.7664 23.8542 71.8914 22.9728 71.5713 21.8437C71.5213 21.7044 71.4703 21.5707 71.4192 21.4371L71.3857 21.3658L71.2603 21.035L71.2212 20.9625C71.1647 20.8573 71.1071 20.7579 71.0484 20.664L71.0161 20.6166C70.739 20.1859 70.3511 19.8401 69.8926 19.6166L70.1578 19.5258L71.2056 19.1369L72.2762 18.7525L74.5746 20.6384L77.399 19.7821L78.2728 20.516ZM77.2281 19.1359L74.9794 19.8195L75.8184 15.4445L78.7691 15.0371L77.2281 19.1359ZM75.6736 14.9389L72.869 13.1388C73.243 12.5735 74.538 12.2792 76.1253 12.5836C77.7126 12.888 78.8069 13.6405 78.9451 14.3041L75.6736 14.9389Z" fill="#222220"/>
<path d="M121.063 31.4608L139.087 25.2566L140.378 29.0068L122.354 35.211L121.063 31.4608ZM123.378 20.7643L130.487 18.317L132.985 21.6748L136.927 20.3179L126.151 6.29815C125.113 4.95311 124.096 3.93806 122.06 4.63896C120.024 5.33986 119.813 6.75441 119.809 8.48108L119.696 26.2415L123.391 24.9695L123.378 20.7643ZM123.298 8.81391L123.387 8.78323L128.375 15.5012L123.371 17.2239L123.298 8.81391Z" fill="#EF3124"/>
<defs>
<linearGradient id="paint0_linear_0_41398" x1="9.81348" y1="32.2085" x2="3.72487" y2="20.7014" gradientUnits="userSpaceOnUse">
<stop offset="0.14" stop-color="#F1E813"/>
<stop offset="0.3" stop-color="#E6E418"/>
<stop offset="0.58" stop-color="#C9DA26"/>
<stop offset="0.89" stop-color="#A2CC39"/>
</linearGradient>
<linearGradient id="paint1_linear_0_41398" x1="6.75415" y1="9.71484" x2="16.8938" y2="4.05448" gradientUnits="userSpaceOnUse">
<stop offset="0.06" stop-color="#0FA7DF"/>
<stop offset="0.54" stop-color="#0098F8"/>
<stop offset="0.92" stop-color="#0290EA"/>
</linearGradient>
<linearGradient id="paint2_linear_0_41398" x1="20.0855" y1="33.7782" x2="31.8075" y2="29.2478" gradientUnits="userSpaceOnUse">
<stop offset="0.12" stop-color="#A2CC39"/>
<stop offset="0.28" stop-color="#86C239"/>
<stop offset="0.87" stop-color="#219F38"/>
</linearGradient>
<linearGradient id="paint3_linear_0_41398" x1="15.8754" y1="3.95977" x2="26.7317" y2="5.55728" gradientUnits="userSpaceOnUse">
<stop offset="0.06" stop-color="#0290EA"/>
<stop offset="0.79" stop-color="#0C89CA"/>
</linearGradient>
<linearGradient id="paint4_linear_0_41398" x1="9.34476" y1="31.6752" x2="21.2821" y2="34.1425" gradientUnits="userSpaceOnUse">
<stop offset="0.13" stop-color="#F1E813"/>
<stop offset="0.3" stop-color="#EAE616"/>
<stop offset="0.53" stop-color="#D8DF1F"/>
<stop offset="0.8" stop-color="#BAD52D"/>
<stop offset="0.98" stop-color="#A2CC39"/>
</linearGradient>
<linearGradient id="paint5_linear_0_41398" x1="4.00569" y1="21.9799" x2="6.84669" y2="9.39473" gradientUnits="userSpaceOnUse">
<stop offset="0.07" stop-color="#A2CC39"/>
<stop offset="0.26" stop-color="#81C45E"/>
<stop offset="0.92" stop-color="#0FA7DF"/>
</linearGradient>
</defs>
</svg>
