<svg width="145" height="136" viewBox="0 0 145 136" fill="none" xmlns="http://www.w3.org/2000/svg">
<path d="M137.372 96.4645L138.902 93.6504L135.779 93.1532C134.335 92.8208 133.029 92.0617 132.017 90.9707L132.436 91.0511C134.329 91.4047 136.267 90.6573 137.43 89.1233L139.354 86.4683C138.282 86.2721 137.224 86.0043 136.188 85.6668C135.217 85.2311 134.414 84.5035 133.877 83.5869C133.139 82.4188 131.963 81.6106 130.609 81.3417C130.082 81.2408 129.539 81.2289 129 81.292C129.117 81.0649 129.226 80.8361 129.318 80.5948C129.866 78.8964 129.712 77.0452 128.898 75.4557L127.1 72.1051L125.004 75.2175C124.68 75.6547 124.252 76.0072 123.748 76.225C123.731 74.9639 123.354 73.745 122.647 72.7032C121.472 70.9241 119.626 69.7007 117.526 69.3166C117.161 69.2464 116.79 69.203 116.423 69.1882L113.498 69.2006C113.92 68.3013 114.476 67.4739 115.153 66.7436L117.168 64.624L113.192 64.2404L112.456 61.325L109.796 62.1743L107.989 59.5435L105.336 61.319L103.167 59.6083L101.417 61.9823L97.596 60.7871L98.6826 63.5109C99.041 64.4397 99.2517 65.4142 99.3111 66.4058L96.7363 65.3664L96.647 65.3493C96.2827 65.2239 95.9132 65.1253 95.5384 65.0534C93.4458 64.6336 91.2779 65.0872 89.5278 66.3052C88.4753 67.0189 87.6532 68.0264 87.1763 69.2112C86.8046 68.8347 86.5337 68.3666 86.3925 67.8494L85.5937 64.1542L82.6634 66.6071C81.3367 67.7861 80.5287 69.4438 80.402 71.2135C80.3987 71.4719 80.4149 71.7246 80.4401 71.9791C79.9625 71.721 79.4533 71.531 78.927 71.4301C77.5695 71.1789 76.1773 71.4945 75.0597 72.3068C74.233 72.9528 73.226 73.3331 72.1702 73.3894C71.069 73.3447 69.9688 73.1985 68.8874 72.954L69.6486 76.1703C70.162 78.0259 71.6855 79.437 73.5747 79.8087L73.994 79.8891C72.6719 80.514 71.1952 80.7395 69.7472 80.5265L66.6509 79.794L67.0305 82.9741C67.2942 85.4568 68.9888 87.5667 71.3641 88.346C70.8115 89.8768 69.5508 91.05 67.9867 91.4899L65.4098 92.0036L66.2649 94.4888C67.0098 96.3426 68.6502 97.6744 70.6071 98.0312C71.1155 98.1287 71.6342 98.1728 72.1542 98.1616C72.1748 98.7296 72.231 99.3045 72.3084 99.865C72.5287 101.128 72.3091 102.417 71.6963 103.539L70.0697 105.752L72.5336 106.937C73.0844 107.199 73.6772 107.387 74.2748 107.502C74.703 107.584 75.1308 107.62 75.5688 107.602C75.8858 107.589 76.2062 107.558 76.5138 107.496C76.7293 108.157 77.0424 108.791 77.4211 109.372C78.7534 111.394 80.9424 112.711 83.9305 113.284L86.0623 113.693L81.3142 114.678L84.3338 116.968C85.5541 117.886 86.8131 118.747 88.1126 119.542L87.4887 120.625L88.5385 121.372C90.3037 122.487 92.2481 123.295 94.286 123.759L97.0243 124.285C99.0807 124.605 101.179 124.563 103.222 124.179L104.437 123.875L104.266 122.64C105.789 122.368 107.298 122.019 108.786 121.593L112.364 120.633L108.318 118.007L110.458 118.418C113.447 118.991 115.981 118.552 117.953 117.192C118.529 116.794 119.045 116.319 119.49 115.785C119.753 115.955 120.039 116.103 120.329 116.232C120.729 116.411 121.14 116.536 121.568 116.618C122.166 116.733 122.788 116.769 123.395 116.737L126.131 116.55L125.457 113.942C125.261 112.647 125.534 111.321 126.22 110.204C126.512 109.696 126.769 109.172 127 108.643C127.479 108.846 127.986 108.999 128.495 109.096C130.463 109.492 132.495 108.828 133.86 107.351L135.551 105.382L133.381 103.967C132.091 102.979 131.353 101.423 131.407 99.7963C133.903 99.9422 136.257 98.618 137.422 96.4L137.372 96.4645V96.4645Z" fill="white"/>
<path d="M111.1 101.248L89.6928 97.1425L88.1532 105.17C87.5202 108.471 89.5083 110.979 93.0316 111.655C95.9753 112.219 96.729 112.484 97.6086 113.781C98.4373 113.172 99.4901 112.94 100.504 113.152L100.528 113.027L101.606 111.07L100.696 109.592C100.205 109.646 99.7131 109.607 99.2365 109.488C98.5157 109.34 97.8158 109.132 97.1385 108.854L96.9156 108.811C96.8173 108.792 96.8173 108.792 96.7804 108.841L96.6039 109.038L96.286 109.393L95.8426 109.197L93.8746 108.321L93.5003 108.73L93.49 108.783L93.6866 109.108L93.5113 109.444C93.2401 109.845 92.8972 110.186 92.4933 110.46L91.8699 110.914L91.5099 110.235L91.2459 109.731C90.9654 109.168 90.9993 108.509 91.3247 107.97L90.6987 108.1L90.5495 107.479L90.4838 107.051C90.2806 106.133 90.7453 105.205 91.5881 104.812L93.4184 104.238L94.9372 104.853C94.9663 104.701 95.1689 104.176 95.2392 104.051L95.15 104.034L94.1928 104.202L93.4172 103.424C93.273 103.211 93.3206 102.915 93.5438 102.764L94.6375 101.642L93.001 98.5537L95.9782 100.438L96.2525 100.213L96.8011 99.7634L97.2173 100.342C97.3254 100.502 97.3837 100.68 97.3924 100.876C98.2161 101.403 99.666 102.763 99.4748 104.484L98.9269 104.592C98.9724 104.693 99.0391 104.779 99.1286 104.843L101.439 105.526L101.665 105.505C102.095 105.43 102.539 105.432 102.969 105.505C103.397 105.587 103.797 105.766 104.145 106.027C104.326 105.997 104.521 105.997 104.701 106.023L104.817 106.045C106.074 106.286 106.526 107.353 106.882 108.198L107.069 108.622C107.386 109.331 107.792 110.352 107.812 110.392L107.993 110.843L107.6 111.156C107.231 111.492 106.724 111.626 106.233 111.532C106.089 111.514 105.946 111.486 105.805 111.45C105.686 111.4 105.568 111.34 105.453 111.262C105.429 111.387 105.4 111.539 105.305 111.65L104.535 113.685C107.055 113.66 109.185 111.812 109.563 109.313L111.1 101.248V101.248ZM89.7909 96.4862L106.462 99.6834C105.921 98.8399 105.886 97.7697 106.369 96.8911C106.166 96.7414 105.979 96.5576 105.823 96.3611C105.079 96.7178 102.778 97.7745 102.226 98.0479L102.105 98.0987L95.7802 95.6835L95.6465 95.6578C95.4306 95.6258 95.2165 95.5847 95.0042 95.5346C94.8853 95.8171 94.5873 95.9727 94.293 95.9162L94.1859 95.8957C93.85 95.7665 93.6725 95.3903 93.7927 95.0527L93.8201 94.91C93.0891 94.1409 92.8896 93.0114 93.3075 92.0372L93.3297 91.9213L93.4415 91.8688C93.4415 91.8688 93.5836 91.8035 93.7718 91.7379L93.3128 91.5759C93.1412 91.5059 93.056 91.3233 93.117 91.1499C93.1779 90.9766 93.3608 90.8914 93.5341 90.9524L93.5429 90.9541L94.6416 91.3498L95.5132 87.3832L97.5413 85.9225L98.1696 88.3365L96.328 91.96L97.2961 92.3121C97.4677 92.3819 97.5529 92.5647 97.4919 92.7381C97.4344 92.8935 97.28 92.9748 97.1195 92.944L97.066 92.9337L96.2799 92.6444L96.2679 92.7067C96.3264 92.8844 96.4363 93.0351 96.5903 93.1477L101.561 94.1842L103.078 93.1713C102.171 92.6458 101.639 91.656 101.72 90.608C101.142 90.2475 100.722 89.6861 100.551 89.0337C100.418 88.4256 100.495 87.7837 100.777 87.2276C100.052 86.7647 99.4295 86.1552 98.966 85.4374L91.5625 84.0176C91.7518 84.9603 91.7789 85.9271 91.635 86.8707L89.7909 96.4862V96.4862Z" fill="#FCE527"/>
<path d="M95.8398 101.955C95.7327 101.935 95.6193 101.996 95.5897 102.101L95.588 102.11C95.5569 102.225 95.6256 102.349 95.7398 102.38L95.7487 102.382C95.8735 102.406 95.9816 102.325 96.0038 102.209C96.0278 102.084 95.9556 101.977 95.8398 101.955V101.955Z" fill="#222220"/>
<path d="M95.8371 101.943C95.8459 101.945 95.8443 101.954 95.8443 101.954C95.8533 101.956 95.855 101.947 95.8638 101.948L95.8371 101.943V101.943ZM107.606 119.367L106.466 118.658L107.05 117.448L107.691 116.128C105.839 116.67 103.94 117.027 102.021 117.195C101.081 117.274 100.417 117.267 100.417 117.267L100.244 118.168C99.1125 118.136 97.9878 118.022 96.871 117.817L96.773 117.798C95.6597 117.575 94.5723 117.265 93.5094 116.876L93.6805 115.984C93.6805 115.984 93.0533 115.734 92.2092 115.314C90.4888 114.447 88.8561 113.413 87.3362 112.224L87.4351 113.686L87.5382 115.028L86.2077 115.263L84.7723 115.515C86.4268 116.822 88.1922 117.983 90.0527 118.988L89.3337 120.181C91.3259 121.414 93.5503 122.257 95.8618 122.645L95.9154 122.655C98.2063 123.15 100.585 123.19 102.892 122.781L102.674 121.408C104.765 121.162 106.835 120.736 108.856 120.134L107.606 119.367ZM86.2466 115.881L88.3727 115.595L88.1516 113.518C89.3379 114.421 90.5893 115.225 91.9076 115.921L90.4132 118.409C88.9488 117.703 87.5491 116.852 86.2466 115.881ZM96.0636 122.027L96.0258 121.983C94.0652 121.597 92.1631 120.955 90.3713 120.075L92.2015 117.041C93.6283 117.703 95.132 118.204 96.6823 118.511L96.7805 118.53C98.3359 118.81 99.9166 118.909 101.487 118.822L102.065 122.318C100.063 122.489 98.0382 122.387 96.0636 122.027V122.027ZM102.605 120.803L102.611 120.776L102.143 117.912C103.625 117.753 105.085 117.469 106.521 117.069L105.547 118.917L107.442 119.983C105.862 120.41 104.236 120.69 102.605 120.803V120.803ZM106.676 66.4014C108.702 66.7345 110.566 67.7208 111.983 69.204C112.495 67.9335 113.229 66.761 114.154 65.7455L112.085 65.5891L111.465 63.1305L109.22 63.7913L107.624 61.4598L105.278 63.0352L103.437 61.5909L101.952 63.6458L99.9714 63.0255C100.455 64.3113 100.703 65.672 100.709 67.0418C102.574 66.188 104.67 65.9612 106.676 66.4014ZM101.712 64.4136L102.262 64.5838L102.6 64.1216L103.596 62.7403L104.777 63.6697L105.236 64.0259L105.718 63.7299L107.412 62.5659L108.554 64.2739L108.888 64.754L109.446 64.5929L110.878 64.1647L111.301 65.8179L111.444 66.3726L112.018 66.4179L112.565 66.4581C112.257 66.9076 111.972 67.3802 111.722 67.8684C108.818 65.6007 104.991 64.8668 101.455 65.8994C101.402 65.353 101.313 64.8086 101.193 64.277L101.712 64.4136V64.4136ZM129.602 89.8857L129.417 89.5453C128.164 87.113 126.97 84.8033 124.327 83.3439C124.462 83.2681 124.595 83.2011 124.735 83.1448C126.219 82.6431 127.414 81.5223 128.006 80.073C128.42 78.7372 128.298 77.299 127.668 76.05L126.99 74.764L126.173 75.9852C126.158 76.0655 124.759 78.0074 122.761 77.6242L122.172 77.5113C122.548 76.1315 122.304 74.6514 121.506 73.4625C120.538 72.0006 119.011 70.9956 117.287 70.6744C116.966 70.6128 116.64 70.5779 116.319 70.5627L114.903 70.5685L115.537 71.846C116.026 72.8646 116.327 74.5223 115.463 75.2167C115.068 75.4461 114.64 75.6045 114.19 75.6846C113.218 75.9328 111.819 76.2842 111.531 77.7826C111.345 78.7549 111.908 79.9171 113.107 81.044C116.64 84.3667 118.624 87.4754 119.136 90.6437C119.938 95.4769 117.269 97.6286 114.895 98.5789L113.833 99.0042L114.517 99.9213C115.136 100.697 115.971 101.264 116.924 101.548L117.736 101.704C118.565 101.863 119.408 101.904 120.248 101.816C119.985 102.126 119.681 102.41 119.364 102.664C117.892 103.833 115.961 104.258 114.133 103.806L113.339 103.654L113.124 104.435C112.902 105.549 113.19 106.695 113.899 107.58C114.085 107.819 114.304 108.028 114.547 108.204C112.981 109.235 111.894 110.849 111.514 112.69C111.32 113.698 110.897 114.653 110.285 115.479L109.137 116.645L110.724 116.95C113.347 117.453 115.492 117.115 117.159 115.946C118.027 115.326 118.739 114.51 119.242 113.571C119.676 114.107 120.224 114.527 120.855 114.805C121.154 114.937 121.468 115.034 121.789 115.096C122.271 115.188 122.764 115.218 123.249 115.2L124.317 115.127L124.052 114.096C123.779 112.481 124.099 110.813 124.95 109.413C125.469 108.495 125.895 107.523 126.219 106.512C126.943 107.076 127.796 107.453 128.698 107.616C130.176 107.918 131.698 107.452 132.739 106.366L133.4 105.568L132.58 105.022C129.83 103.21 129.81 99.747 130.022 97.9194C130.304 98.0384 130.591 98.1306 130.893 98.1976L131.11 98.4149C134.357 99.0376 136.08 95.937 136.152 95.8029L136.742 94.7045L135.52 94.4702C132.968 93.8883 130.801 92.215 129.602 89.8857V89.8857ZM131.292 97.5158L131.167 97.4919C130.514 97.3759 129.906 97.0742 129.418 96.6293C129.418 96.6293 127.709 102.988 132.133 105.908L132.128 105.934C131.31 106.776 130.112 107.139 128.965 106.9C127.647 106.731 126.496 105.936 125.868 104.771C125.604 106.293 125.064 107.761 124.282 109.091C123.3 110.687 122.934 112.596 123.255 114.443C122.835 114.464 122.423 114.44 122.013 114.361C121.763 114.314 121.51 114.237 121.281 114.129C120.149 113.616 119.371 112.56 119.209 111.336C119.209 111.336 118.209 117.562 110.992 116.178L110.939 116.168C111.682 115.238 112.188 114.142 112.403 112.972C113.593 108.456 116.822 108.4 116.822 108.4C115.986 108.128 115.232 107.67 114.611 107.051C114.064 106.382 113.844 105.507 113.988 104.657C116.058 105.146 118.24 104.667 119.909 103.341C120.91 102.562 121.673 101.525 122.139 100.347C120.823 100.992 119.32 101.157 117.896 100.819L117.165 100.679C116.404 100.45 115.722 100.004 115.222 99.3814C118.311 98.1244 120.823 95.4433 120.007 90.4871C119.345 86.5131 116.586 83.1077 113.677 80.3859C112.71 79.4974 112.197 78.6039 112.323 77.9437C112.621 76.3918 114.833 76.7697 115.95 75.8649C117.226 74.8519 116.951 72.7646 116.267 71.4127C116.534 71.4177 116.805 71.4512 117.064 71.5008C118.557 71.7687 119.879 72.6418 120.708 73.9106C121.569 75.1114 121.681 76.6958 121.013 78.0104L121.476 78.2008C121.76 78.3109 122.049 78.3941 122.351 78.4611L122.547 78.4987C125.16 79 126.863 76.4874 126.863 76.4874C126.863 76.4874 128.989 80.4464 124.382 82.3371C123.59 82.6569 123.194 83.0341 123.233 83.5041L123.239 83.8103L123.523 83.9204C126.339 85.2927 127.436 87.63 128.836 90.3122C130.158 92.8685 132.542 94.7129 135.35 95.3533L135.404 95.3635C135.404 95.3635 133.968 98.029 131.292 97.5158V97.5158Z" fill="#222220"/>
<path d="M127.856 84.4378C128.745 85.2002 129.462 86.1423 129.962 87.1998C130.319 88.0823 130.922 88.8453 131.707 89.3841C132.007 89.5529 132.345 89.673 132.684 89.738C134.049 89.9998 135.446 89.4633 136.303 88.3698L137.043 87.3095L135.799 86.997C134.491 86.4871 133.403 85.557 132.702 84.3406C132.171 83.4898 131.315 82.8909 130.327 82.6922C129.558 82.5539 128.773 82.6439 128.052 82.9311L126.737 83.5204L127.856 84.4378V84.4378ZM130.188 83.5625L130.159 83.5662C130.917 83.7116 131.568 84.1787 131.968 84.8381C132.783 86.2335 134.058 87.301 135.578 87.8608C134.923 88.6694 133.879 89.0517 132.851 88.8638C132.602 88.8159 132.361 88.7234 132.135 88.597C130.784 87.8293 130.695 85.5464 128.442 83.7457C128.994 83.5186 129.597 83.4585 130.188 83.5625V83.5625ZM126.239 96.0483L126.225 96.0271C126.623 89.9996 123.166 84.9255 118.906 81.4358C118.515 81.1112 118.143 80.8364 117.786 80.5736C119.671 81.3515 121.807 81.2615 123.621 80.3333C123.621 80.3333 120.477 81.8296 115.192 78.9109C116.558 80.2272 119.317 82.236 121.646 85.0872C127.401 92.498 121.311 97.4893 121.311 97.4893C123.757 95.9236 125.055 93.0652 124.643 90.1935C125.639 92.9092 125.803 95.863 125.108 98.6703C124.015 103.307 120.636 106.894 117.336 109.637C116.336 110.509 115.552 111.607 115.074 112.847C115.773 111.658 116.686 110.613 117.773 109.767C121.324 106.924 124.453 103.872 125.774 98.8628C125.906 99.813 126.639 102.645 128.415 103.993C128.415 103.993 126.237 102.041 126.239 96.0483V96.0483ZM85.139 110.722C84.8854 109.73 84.8451 108.686 85.0293 107.677C85.3567 105.825 84.9356 103.922 83.8618 102.385C84.1532 102.311 84.4338 102.199 84.6945 102.045C85.6804 101.485 86.3729 100.527 86.5778 99.4102L86.6765 98.6058L85.8738 98.4519C84.0191 98.1887 82.3806 97.0885 81.445 95.4572C81.2445 95.1043 81.0758 94.7298 80.9374 94.3426C81.6851 94.7356 82.4834 95.0089 83.313 95.168L84.1248 95.3237C85.1159 95.4121 86.1098 95.1958 86.9717 94.7045L87.9465 94.1053L87.1174 93.3175C85.2546 91.5545 83.5796 88.57 86.1132 84.3763C87.7555 81.6487 90.752 79.4767 95.2998 77.7041C96.8356 77.0739 97.7748 76.2274 97.9612 75.2552C98.2486 73.7566 97.1055 72.9179 96.2673 72.3224C95.8788 72.0814 95.5397 71.7759 95.2573 71.4166C94.7027 70.4502 95.6032 68.986 96.4363 68.258L97.5422 67.3141L96.2199 66.783C95.9178 66.6696 95.6003 66.5902 95.2791 66.5286C93.5499 66.1415 91.7447 66.4889 90.2794 67.4748C89.0816 68.2716 88.2886 69.5622 88.1164 70.9903L87.5812 70.8877C85.5742 70.5028 85.0358 68.1986 85.0172 68.1025L84.7102 66.6657L83.6044 67.6096C82.5661 68.5387 81.9209 69.8299 81.8107 71.2238C81.8249 72.7894 82.5118 74.2712 83.7043 75.2861C83.8138 75.3902 83.9216 75.5034 84.0098 75.622C81.02 75.9735 79.0512 77.7044 76.9867 79.5003L76.6877 79.7574C74.7116 81.4777 72.0706 82.2289 69.4846 81.8253L68.2626 81.5909L68.4131 82.8314C68.3857 82.9741 68.875 86.4989 72.1307 87.1233L72.2913 87.1541C72.5963 87.2033 72.8975 87.2241 73.2038 87.2181C72.7279 88.9765 71.4246 92.2038 68.1897 92.8688L67.2259 93.0723L67.5454 94.0584C68.1104 95.4521 69.3527 96.4488 70.8368 96.7149C71.736 96.8966 72.6585 96.8607 73.5399 96.6045C73.4664 97.6631 73.5033 98.7245 73.6451 99.7689C73.918 101.384 73.5981 103.052 72.747 104.452L72.1197 105.312L73.0852 105.774C73.5285 105.97 73.9982 106.125 74.4799 106.218C74.801 106.279 75.129 106.305 75.4549 106.294C76.144 106.269 76.8087 106.082 77.4099 105.744C77.5305 106.803 77.8895 107.824 78.4666 108.721C79.5916 110.425 81.4617 111.524 84.0734 112.034L85.6611 112.339L85.139 110.722V110.722ZM84.2761 111.074C77.0599 109.69 78.4255 103.534 78.4255 103.534C77.8213 104.611 76.7082 105.304 75.4671 105.362C75.2142 105.378 74.9504 105.355 74.7007 105.307C74.2904 105.229 73.8992 105.098 73.5256 104.925C74.5069 103.328 74.873 101.419 74.552 99.573C74.3173 98.0482 74.3673 96.4856 74.6849 94.9744C73.6709 95.8251 72.3072 96.1368 71.0202 95.8068L70.9756 95.7983C69.8126 95.5938 68.8356 94.8053 68.3871 93.7203C73.578 92.6445 74.3421 86.1047 74.3421 86.1047C73.7241 86.3377 73.0476 86.3928 72.3982 86.2591L72.3001 86.2402C69.6241 85.727 69.2761 82.7194 69.2761 82.7194L69.3297 82.7297C72.1744 83.1827 75.0801 82.3529 77.2544 80.4672C79.5384 78.4915 81.4303 76.7273 84.5546 76.4941L84.8592 76.4971L84.9781 76.2146C85.1456 75.7752 84.9173 75.2782 84.3427 74.7057C80.7617 71.2445 84.2016 68.353 84.2016 68.353C84.2016 68.353 84.836 71.3139 87.4674 71.8185L87.5923 71.8425C87.8973 71.8916 88.1968 71.9213 88.5013 71.9243L89.0018 71.9186C88.8583 70.4483 89.5578 69.0196 90.8019 68.2224C92.0418 67.3504 93.5926 67.0283 95.0788 67.3318C95.3375 67.3814 95.6018 67.4506 95.8519 67.5448C94.7322 68.56 93.6959 70.3958 94.5086 71.8001C95.2004 73.0149 97.4039 73.4837 97.0995 75.0714C96.9729 75.7314 96.2104 76.3805 94.9815 76.8569C91.2629 78.3078 87.4395 80.4506 85.3631 83.8995C82.7716 88.2022 84.1081 91.6491 86.5185 93.9331C85.825 94.3181 85.0247 94.4882 84.2333 94.4198L83.4929 94.2778C82.0449 94.0647 80.7105 93.3558 79.7258 92.2697C79.7233 93.5363 80.0485 94.7824 80.6806 95.8746C81.7425 97.7152 83.5997 98.9776 85.7041 99.2887C85.5237 100.133 84.9951 100.864 84.2396 101.283C83.4336 101.628 82.5637 101.775 81.687 101.718C81.687 101.718 84.6784 102.948 84.1365 107.607C83.9033 108.774 83.9682 109.979 84.3138 111.118L84.2761 111.074V111.074Z" fill="#222220"/>
<path d="M73.8595 78.4488L73.8684 78.4505C74.2074 78.5155 74.5655 78.5287 74.9072 78.4834C75.8353 78.2728 76.6776 77.7871 77.3365 77.0996C78.1834 76.3002 79.1975 75.6902 80.306 75.3108L81.6831 74.8814L80.6792 73.8473C80.1156 73.3138 79.4198 72.9399 78.6633 72.7856C77.6715 72.6046 76.6545 72.8442 75.8452 73.4474C74.7548 74.311 73.3887 74.7795 71.9939 74.771L70.7243 74.5923L71.0103 75.8493C71.402 77.1823 72.4965 78.1782 73.8595 78.4488V78.4488ZM76.3444 74.172C76.9516 73.7059 77.7286 73.5125 78.4867 73.6579C79.0648 73.7782 79.6014 74.0661 80.0322 74.4723C77.2495 75.3351 76.3093 77.3927 74.8059 77.613C74.5586 77.6489 74.3002 77.6456 74.0505 77.5977C73.0158 77.3993 72.1798 76.647 71.8726 75.6448C73.4921 75.6872 75.0715 75.1671 76.3444 74.172ZM77.6119 89.6001C78.0043 86.7345 79.2406 84.0492 81.1794 81.8964C79.7351 84.4122 79.8828 87.5479 81.5759 89.9071C81.5759 89.9071 77.7558 83.0154 85.8531 78.2612C89.072 76.4742 92.3695 75.627 94.1255 74.9094C88.1358 75.6658 85.7679 73.1123 85.7679 73.1123C87.1105 74.6461 89.052 75.5177 91.0913 75.4927C90.6629 75.6047 90.2132 75.7312 89.7317 75.8793C84.4813 77.5543 79.3659 80.9846 77.5323 86.7364L77.5408 86.6918C75.3262 92.2598 72.5804 93.2684 72.5804 93.2684C74.7186 92.6796 76.4579 90.3129 76.9234 89.4772C76.2783 94.625 78.0823 98.6239 80.3312 102.569C81.0192 103.756 81.4892 105.066 81.6995 106.429C81.7032 105.107 81.3812 103.797 80.7645 102.625C78.7129 98.8557 76.9097 94.2743 77.6119 89.6001ZM101.775 83.0996C102.145 82.8562 102.61 82.7973 103.036 82.9346L102.713 84.6204C102.624 85.038 102.44 85.4189 102.165 85.7452L103.85 86.0685C103.715 85.6636 103.685 85.2415 103.757 84.8206L104.08 83.1348C104.518 83.1634 104.928 83.3899 105.182 83.7531L105.406 82.5846L101.999 81.9311L101.775 83.0996V83.0996ZM102.622 74.8742L102.604 74.8708C102.82 75.1434 103.089 75.3799 103.399 75.5503L103.594 75.6895L103.806 74.5835L101.985 73.3741C101.977 73.946 102.206 74.4891 102.622 74.8742ZM107.324 75.7669L107.314 75.774C107.843 75.5703 108.256 75.1503 108.461 74.616L106.321 75.0659L106.111 76.163L106.335 76.1041C106.685 76.0605 107.023 75.9402 107.324 75.7669V75.7669Z" fill="#222220"/>
<path d="M111.733 71.978C112.053 70.31 109.53 68.2726 106.435 67.679C103.34 67.0854 100.243 68.0451 99.9231 69.7131L99.9067 70.1353L99.7782 77.509L98.3996 77.9937L94.8095 79.2102C94.8095 79.2102 94.0151 79.4463 93.6333 79.6044C92.2403 80.2619 91.7522 81.4075 92.3578 82.0602C92.7688 80.8811 94.0014 80.1927 95.2255 80.4646C96.2461 80.6881 97.1014 81.3884 97.5187 82.3469C97.6559 82.5953 97.772 82.8581 97.8702 83.1174C97.9993 83.4565 98.1353 83.76 98.273 84.0546L90.0133 82.4705C90.4799 83.7991 90.6229 85.223 90.447 86.6227L86.9281 104.971C86.0728 109.431 89.087 112.182 92.8066 112.895C95.6611 113.443 96.0702 113.383 97.3389 115.254C99.2101 113.985 99.5679 114.192 102.422 114.74C106.115 115.448 109.964 113.994 110.815 109.552L114.331 91.2217C114.685 89.8563 115.345 88.5864 116.27 87.5246L107.921 85.9234C108.158 85.7006 108.397 85.4689 108.642 85.2016C108.838 84.9987 109.043 84.7976 109.254 84.616C110.005 83.8816 111.058 83.5473 112.089 83.7171C113.327 83.9176 114.218 85.0132 114.163 86.2604C114.974 85.8888 114.96 84.5638 113.887 83.5072C113.601 83.212 112.949 82.7076 112.949 82.7076L110.1 80.2008L108.999 79.2405L111.608 72.3424L111.733 71.978V71.978ZM100.961 70.7629L105.032 73.0695L103.721 79.9021L100.844 77.5931L100.961 70.7629ZM91.5663 84.0168L99.0679 85.4555C99.5313 86.1733 100.153 86.7917 100.879 87.2455C100.597 87.8018 100.52 88.4437 100.653 89.0518C100.824 89.7042 101.244 90.2656 101.822 90.6261C101.741 91.6741 102.272 92.6639 103.18 93.1892C102.54 93.6308 101.916 94.0381 101.663 94.2023L96.6921 93.1658C96.5381 93.053 96.4282 92.9025 96.3698 92.7248L96.3818 92.6623L97.1678 92.9518L97.2215 92.9621C97.3819 92.9929 97.5363 92.9114 97.5938 92.7561C97.6547 92.5828 97.5695 92.4 97.3981 92.3302L96.4298 91.978L98.2714 88.3545L97.6432 85.9406L95.6152 87.4013L94.7434 91.3679L93.645 90.9722C93.4733 90.9024 93.2905 90.9876 93.2207 91.159L93.219 91.1681C93.1579 91.3412 93.2431 91.524 93.4147 91.594L93.8737 91.756C93.6854 91.8216 93.5558 91.8707 93.5435 91.8869L93.4318 91.9394L93.4095 92.0554C92.9914 93.0293 93.1999 94.1607 93.9221 94.9281L93.8947 95.0708C93.7744 95.4084 93.952 95.7846 94.288 95.9136L94.3949 95.9341C94.6893 95.9906 94.9873 95.8352 95.1062 95.5528C95.3186 95.6027 95.5238 95.642 95.7395 95.6742L95.8732 95.6998L102.184 98.1401L102.305 98.0893C102.892 97.8228 105.153 96.786 105.902 96.4026C106.059 96.5989 106.245 96.7828 106.448 96.9325C105.965 97.8109 106 98.8812 106.541 99.7248L89.7895 96.5122L91.6388 86.8698C91.7828 85.9264 91.7555 84.9594 91.5663 84.0168V84.0168ZM105.431 95.8219C104.657 96.1915 102.756 97.0847 102.068 97.3965L96.3344 95.2242L96.3652 95.0637C96.5403 94.6811 96.6725 94.281 96.7602 93.8723L101.74 94.9107L101.857 94.8314C101.953 94.7665 103.824 93.544 104.796 92.8149C104.959 93.1235 105.166 93.3944 105.417 93.6276C105.134 94.3316 105.14 95.1188 105.431 95.8219V95.8219ZM95.7261 92.851L95.721 92.8777C95.8069 93.1532 95.962 93.4048 96.1754 93.5939C96.0964 93.9578 95.9922 94.3078 95.8615 94.6526C95.8461 94.7328 95.8307 94.8132 95.7528 94.8814L95.7288 95.0064C95.3184 94.9277 94.9291 94.7882 94.5605 94.588C93.9206 94.0677 93.6696 93.2057 93.9395 92.4252C94.3035 92.2637 94.6966 92.1912 95.0903 92.2112C95.4222 92.2657 95.6788 92.5183 95.7261 92.851V92.851ZM95.338 91.5465L96.1599 87.7925L97.2229 87.0714L97.5497 88.3086L95.7835 91.7801L95.338 91.5465V91.5465ZM102.008 113.43L101.151 113.266L102.239 111.209C102.405 110.926 101.927 110.427 101.762 110.035C102.242 110.47 102.748 110.872 103.276 111.25C103.263 111.322 102.008 113.43 102.008 113.43ZM104.769 111.426L104.709 111.35L103.783 113.669C103.489 113.613 103.165 113.615 102.876 113.578L103.811 111.353C104.086 110.694 102.279 110.134 101.631 108.595C100.937 108.98 100.126 109.065 99.3742 108.837C98.698 108.699 98.0426 108.499 97.4081 108.239C97.294 108.207 97.1781 108.185 97.0604 108.172C96.7873 108.101 96.4922 108.192 96.3033 108.406L96.1267 108.603L93.7026 107.5L92.8942 108.436C92.7688 108.56 92.749 108.76 92.8499 108.909L92.9834 109.129C92.7507 109.426 92.4784 109.688 92.1702 109.897L91.8845 109.362C91.6881 108.843 91.8294 108.251 92.2344 107.875L93.5566 106.381L95.627 107.111L95.4423 106.289C95.188 105.205 96.1105 104.059 96.3221 103.342C96.2794 103.564 96.0389 103.565 95.807 103.52L95.1914 103.402C95.1485 103.385 95.095 103.374 95.0487 103.375L94.4021 103.611L94.0277 103.105C93.9821 102.957 94.0395 102.802 94.1655 102.724L95.4455 101.74L94.4755 100.047L96.0885 101.281L96.7469 100.741C96.8622 100.911 96.7278 101.274 96.7278 101.274C97.9597 101.843 98.6347 103.193 98.3425 104.524L98.2929 104.783C98.4164 105.103 98.6644 105.354 98.97 105.495L101.341 106.2C101.852 106.141 102.361 106.137 102.873 106.17C103.301 106.252 103.703 106.468 104.016 106.768C104.208 106.685 104.426 106.653 104.633 106.683L104.713 106.699C105.793 106.906 106.059 107.974 106.485 108.888C106.804 109.587 107.215 110.628 107.215 110.628C106.998 110.845 106.692 110.944 106.389 110.886C106.28 110.874 106.182 110.855 106.077 110.826C104.958 110.389 105.247 107.966 104.623 107.652L104.516 107.632C104.391 107.608 104.262 107.657 104.177 107.761C104.324 108.631 104.083 108.927 104.289 109.632C104.457 110.062 104.693 110.468 104.985 110.829C104.985 110.829 104.872 111.177 104.769 111.426V111.426ZM92.2207 106.596L92.2028 106.593L92.2569 106.89C92.1393 107.117 91.2519 107.307 91.2519 107.307L91.1489 106.881C91.0247 106.274 91.3173 105.665 91.878 105.393L93.3823 104.831L94.7601 105.409C94.6965 105.693 94.7327 105.987 94.8577 106.251L93.4049 105.677L92.3933 106.13C92.2266 106.228 92.1622 106.419 92.2207 106.596V106.596ZM109.583 109.325C109.205 111.824 107.066 113.67 104.539 113.684L105.363 111.604C105.387 111.48 105.461 111.336 105.503 111.215C105.617 111.292 105.735 111.352 105.855 111.403C105.996 111.439 106.139 111.466 106.283 111.485C106.774 111.579 107.28 111.445 107.65 111.109L108.043 110.796L107.845 110.379C107.845 110.379 107.429 109.319 107.103 108.609L106.925 108.186C106.569 107.341 106.117 106.274 104.86 106.033L104.744 106.011C104.564 105.986 104.369 105.985 104.188 106.015C103.84 105.754 103.44 105.576 103.012 105.494C102.582 105.421 102.138 105.419 101.708 105.493L101.482 105.515L99.1713 104.831C99.0818 104.768 99.0153 104.681 98.9699 104.58L99.5177 104.472C99.7017 102.741 98.2605 101.383 97.4353 100.864C97.4266 100.668 97.3682 100.49 97.2602 100.331L96.8441 99.7517L96.2955 100.201L96.0211 100.426L92.9807 98.4373L94.6173 101.526L93.5235 102.648C93.311 102.792 93.2455 103.084 93.3969 103.308L94.1727 104.085L95.1296 103.917L95.2189 103.934C95.1932 104.068 94.9908 104.594 94.9171 104.737L93.4163 104.171L91.5862 104.745C90.713 105.151 90.2502 106.117 90.4875 107.05L90.5979 107.487L90.7471 108.108L91.3731 107.978C91.0476 108.517 91.0137 109.176 91.2943 109.739L91.5566 110.251L91.9075 110.929L92.5309 110.475C92.9349 110.201 93.2777 109.86 93.5489 109.459L93.7244 109.123L93.5276 108.798L93.5379 108.745L93.9124 108.336L95.8805 109.212L96.3238 109.408L96.6523 109.046L96.8287 108.849C96.8372 108.804 96.839 108.795 96.964 108.819L97.1869 108.862C97.8643 109.14 98.5641 109.348 99.276 109.494C99.7524 109.613 100.244 109.652 100.736 109.598L101.628 111.119L100.549 113.076L100.526 113.201C99.512 112.989 98.4594 113.221 97.6306 113.83C96.7421 112.531 95.9884 112.267 93.0537 111.704C89.5304 111.028 87.5439 108.511 88.1751 105.219L89.7147 97.1915L111.122 101.297L109.583 109.325V109.325ZM114.205 88.3586C113.673 89.1536 113.299 90.0437 113.082 90.9822L111.929 96.9942C111.186 96.676 110.732 95.9048 110.831 95.1006L110.884 94.8241L110.616 94.7728C110.16 94.648 109.772 94.3519 109.515 93.9603C109.209 93.43 109.105 92.8182 109.211 92.2188C108.707 92.7697 108.589 93.5792 108.922 94.2536C109.186 94.7573 109.638 95.1492 110.177 95.3266C110.139 96.392 110.815 97.354 111.824 97.6863L111.26 100.63L107.513 99.9113C106.628 99.2237 106.442 97.9763 107.072 97.0523L107.276 96.7585L106.97 96.5704C105.972 95.9905 105.604 94.727 106.151 93.7037L106.274 93.4497L106.046 93.2858C105.214 92.5622 104.901 91.4016 105.257 90.3603C104.671 90.7656 104.401 91.4999 104.593 92.184C104.376 92.355 104.097 92.5513 103.787 92.7694C102.888 92.3936 102.366 91.4519 102.514 90.4906L102.556 90.2675L102.367 90.148C101.853 89.8831 101.479 89.4229 101.316 88.8737C101.225 88.431 101.279 87.9603 101.477 87.5543C101.648 87.6242 101.822 87.6852 101.997 87.7373C102.173 87.7803 102.361 87.8163 102.541 87.8416C103.986 88.1188 105.479 87.7578 106.648 86.8721L114.205 88.3586V88.3586ZM109.592 81.1667L110.883 82.3392L111.208 82.6234C110.41 82.6832 109.645 82.9618 108.991 83.4282L108.919 83.4697C108.768 83.5796 108.626 83.6912 108.483 83.8117L108.395 83.8872C108.251 84.0077 108.115 84.1387 107.986 84.2805L107.917 84.3506C107.758 84.5049 107.605 84.679 107.451 84.853C106.33 86.3119 104.544 87.0884 102.717 86.923C100.958 86.4007 99.5863 85.0186 99.0844 83.2483C99.0061 83.0299 98.926 82.8204 98.846 82.6108L98.7934 82.4991L98.5968 81.9805L98.5355 81.8668C98.4469 81.7019 98.3566 81.546 98.2646 81.3988L98.214 81.3245C97.7795 80.6492 97.1713 80.107 96.4525 79.7566L96.8682 79.6143L98.511 79.0046L100.19 78.4018L103.793 81.3586L108.222 80.0161L109.592 81.1667V81.1667ZM107.953 79.0029L104.428 80.0747L105.743 73.2153L110.37 72.5766L107.953 79.0029V79.0029ZM105.516 72.4226L101.119 69.6003C101.705 68.7139 103.736 68.2525 106.225 68.7298C108.713 69.2071 110.429 70.387 110.646 71.4273L105.516 72.4226Z" fill="#222220"/>
<path d="M82.0709 12.0419C83.5669 13.4909 84.8926 15.1102 86.021 16.8674L64.7572 38.3752L53.7859 33.5219L52.6333 25.8688L63.6046 30.7222L82.0709 12.0419Z" fill="#21A038"/>
<path d="M43.491 34.5213C43.4393 34.1779 43.3962 33.8355 43.3616 33.4938L37.2479 34.1064C37.2934 34.549 37.3479 34.9947 37.4153 35.4426C37.9398 38.9427 39.141 42.306 40.9499 45.3397C42.7589 48.3736 45.14 51.0182 47.9568 53.1217L51.6045 48.1132C49.4368 46.4973 47.6041 44.4646 46.2117 42.132C44.8193 39.7995 43.8947 37.2129 43.491 34.5213Z" fill="url(#paint0_linear_1001_20216)"/>
<path d="M60.628 10.9781C60.9667 10.9271 61.3051 10.8889 61.6423 10.8553L61.0194 4.65747C60.5812 4.70205 60.1417 4.75754 59.7012 4.82389C56.2457 5.33992 52.9278 6.54257 49.9377 8.3628C46.9475 10.183 44.3442 12.585 42.2771 15.4308L47.2385 19.1449C48.8254 16.955 50.8253 15.1061 53.1231 13.7046C55.421 12.303 57.9714 11.3764 60.628 10.9781Z" fill="url(#paint1_linear_1001_20216)"/>
<path d="M66.803 51.9738C66.4644 52.0248 66.1276 52.0755 65.787 52.099L66.4095 58.2947C66.8494 58.2513 67.2897 58.1965 67.7302 58.1302C71.1841 57.6137 74.5003 56.4108 77.4887 54.5905C80.477 52.7701 83.0784 50.3681 85.1437 47.5227L80.1908 43.8094C78.6035 45.9984 76.6037 47.8464 74.3063 49.2475C72.0089 50.6486 69.459 51.5752 66.803 51.9738Z" fill="url(#paint2_linear_1001_20216)"/>
<path d="M72.5671 12.8376L77.1058 8.24725C71.8538 5.11523 65.7045 3.90579 59.6914 4.82231L60.6186 10.9786C64.6907 10.3601 68.8569 11.0083 72.5671 12.8376Z" fill="url(#paint3_linear_1001_20216)"/>
<path d="M90.0197 27.5167C89.7817 25.9147 89.4028 24.3368 88.8871 22.8021L83.8625 27.8831C83.89 28.0653 83.9174 28.2474 83.9451 28.4315C84.378 31.2955 84.2121 34.2173 83.4585 37.0074C82.7047 39.7975 81.3799 42.3938 79.57 44.6279L84.3423 48.5868C86.6949 45.6794 88.416 42.3014 89.3941 38.6717C90.3722 35.0419 90.5853 31.2414 90.0197 27.5167Z" fill="#21A038"/>
<path d="M66.8025 51.9757C63.9763 52.4023 61.0907 52.2226 58.3327 51.4484C55.5748 50.6741 53.0058 49.3223 50.7922 47.4808L46.9042 52.2964C49.7837 54.6912 53.1256 56.4482 56.7133 57.4535C60.3009 58.4587 64.0541 58.6899 67.7296 58.1319L66.8025 51.9757Z" fill="url(#paint4_linear_1001_20216)"/>
<path d="M47.8661 18.3251L43.0959 14.3659C40.7425 17.2729 39.0205 20.6509 38.0417 24.2808C37.0629 27.9107 36.8492 31.7114 37.4144 35.4366L43.491 34.5214C43.0584 31.6576 43.2243 28.7358 43.978 25.9457C44.7317 23.1556 46.0564 20.5593 47.8661 18.3251Z" fill="url(#paint5_linear_1001_20216)"/>
<path d="M20.668 112.819L49.44 102.915L51.5006 108.902L22.7286 118.806L20.668 112.819ZM24.3629 95.7445L35.7119 91.838L39.6991 97.198L45.9919 95.0319L28.7897 72.6525C27.1326 70.5054 25.5099 68.8851 22.2596 70.004C19.0092 71.1228 18.6725 73.3808 18.6665 76.1371L18.4857 104.488L24.3845 102.457L24.3629 95.7445V95.7445ZM24.2353 76.6684L24.3775 76.6194L32.3409 87.3432L24.3517 90.0931L24.2353 76.6684V76.6684Z" fill="#EF3124"/>
<defs>
<linearGradient id="paint0_linear_1001_20216" x1="49.07" y1="52.1685" x2="39.3509" y2="33.8" gradientUnits="userSpaceOnUse">
<stop offset="0.14" stop-color="#F1E813"/>
<stop offset="0.3" stop-color="#E6E418"/>
<stop offset="0.58" stop-color="#C9DA26"/>
<stop offset="0.89" stop-color="#A2CC39"/>
</linearGradient>
<linearGradient id="paint1_linear_1001_20216" x1="44.176" y1="16.258" x2="60.3618" y2="7.22248" gradientUnits="userSpaceOnUse">
<stop offset="0.06" stop-color="#0FA7DF"/>
<stop offset="0.54" stop-color="#0098F8"/>
<stop offset="0.92" stop-color="#0290EA"/>
</linearGradient>
<linearGradient id="paint2_linear_1001_20216" x1="65.4544" y1="54.673" x2="84.166" y2="47.4412" gradientUnits="userSpaceOnUse">
<stop offset="0.12" stop-color="#A2CC39"/>
<stop offset="0.28" stop-color="#86C239"/>
<stop offset="0.87" stop-color="#219F38"/>
</linearGradient>
<linearGradient id="paint3_linear_1001_20216" x1="58.738" y1="7.07452" x2="76.0678" y2="9.62459" gradientUnits="userSpaceOnUse">
<stop offset="0.06" stop-color="#0290EA"/>
<stop offset="0.79" stop-color="#0C89CA"/>
</linearGradient>
<linearGradient id="paint4_linear_1001_20216" x1="48.3156" y1="51.3175" x2="67.371" y2="55.2561" gradientUnits="userSpaceOnUse">
<stop offset="0.13" stop-color="#F1E813"/>
<stop offset="0.3" stop-color="#EAE616"/>
<stop offset="0.53" stop-color="#D8DF1F"/>
<stop offset="0.8" stop-color="#BAD52D"/>
<stop offset="0.98" stop-color="#A2CC39"/>
</linearGradient>
<linearGradient id="paint5_linear_1001_20216" x1="39.7904" y1="35.8408" x2="44.3254" y2="15.7513" gradientUnits="userSpaceOnUse">
<stop offset="0.07" stop-color="#A2CC39"/>
<stop offset="0.26" stop-color="#81C45E"/>
<stop offset="0.92" stop-color="#0FA7DF"/>
</linearGradient>
</defs>
</svg>
