<svg width="40" height="41" viewBox="0 0 40 41" fill="none" xmlns="http://www.w3.org/2000/svg">
<path fill-rule="evenodd" clip-rule="evenodd" d="M13.9654 12.4905C15.5683 10 18.3662 8.34766 21.5519 8.34766C26.3527 8.34766 30.2772 12.1001 30.5523 16.832C30.6579 16.8275 30.7641 16.8252 30.8708 16.8252C34.9923 16.8252 38.3334 20.1664 38.3334 24.2879C38.3334 28.4093 34.9923 31.7505 30.8708 31.7505H11.4564C6.04824 31.7505 1.66406 27.3663 1.66406 21.9581C1.66406 16.55 6.04824 12.1658 11.4564 12.1658C12.3225 12.1658 13.1637 12.2785 13.9654 12.4905ZM19.9987 26.7505C20.2988 26.7505 20.5742 26.6447 20.7896 26.4685L24.9462 23.1432C25.4853 22.712 25.5727 21.9253 25.1414 21.3863C24.7102 20.8472 23.9235 20.7598 23.3845 21.191L21.2487 22.8996V17.1671C21.2487 16.4768 20.6891 15.9171 19.9987 15.9171C19.3084 15.9171 18.7487 16.4768 18.7487 17.1671V22.8997L16.6129 21.191C16.0738 20.7598 15.2872 20.8472 14.8559 21.3863C14.4246 21.9253 14.512 22.712 15.0511 23.1432L19.2134 26.473C19.4254 26.6445 19.6948 26.748 19.9882 26.7504L19.9987 26.7505Z" fill="#949DA6"/>
</svg>
