<svg width="26" height="26" viewBox="0 0 26 26" fill="none" xmlns="http://www.w3.org/2000/svg">
<rect x="0.5" y="0.5" width="25" height="25" rx="12.5" fill="#30B5DF"/>
<path fill-rule="evenodd" clip-rule="evenodd" d="M9.0518 8.5376C9.0518 7.30548 10.0506 6.30664 11.2828 6.30664C11.9728 6.30664 12.5897 6.61991 12.9989 7.11199C13.4081 6.61991 14.025 6.30664 14.715 6.30664C15.9471 6.30664 16.946 7.30548 16.946 8.5376C16.946 9.05537 16.7696 9.53193 16.4736 9.9105H17.1176C18.0654 9.9105 18.8337 10.6788 18.8337 11.6266V12.4847C18.8337 12.769 18.6032 12.9995 18.3189 12.9995H13.7197C13.6059 12.9995 13.5137 12.9073 13.5137 12.7936V10.4178C13.3195 10.2935 13.1458 10.1399 12.9989 9.96321C12.852 10.1399 12.6783 10.2935 12.484 10.4178V12.7936C12.484 12.9073 12.3918 12.9995 12.2781 12.9995H7.6789C7.39456 12.9995 7.16406 12.769 7.16406 12.4847V11.6266C7.16406 10.6788 7.9324 9.9105 8.88019 9.9105H9.52413C9.22818 9.53193 9.0518 9.05537 9.0518 8.5376ZM12.484 8.5376C12.484 7.87415 11.9462 7.33631 11.2828 7.33631C10.6193 7.33631 10.0815 7.87415 10.0815 8.5376C10.0815 9.20105 10.6193 9.73889 11.2828 9.73889C11.9462 9.73889 12.484 9.20105 12.484 8.5376ZM13.5137 8.5376C13.5137 9.20105 14.0516 9.73889 14.715 9.73889C15.3785 9.73889 15.9163 9.20105 15.9163 8.5376C15.9163 7.87415 15.3785 7.33631 14.715 7.33631C14.0516 7.33631 13.5137 7.87415 13.5137 8.5376Z" fill="white"/>
<path d="M12.484 14.1322C12.484 14.0184 12.3918 13.9262 12.2781 13.9262H8.63925C8.36079 13.9262 8.12284 14.1269 8.07581 14.4013C7.92339 15.2908 7.92339 16.1998 8.07581 17.0893L8.22979 17.9879C8.33347 18.5929 8.82486 19.0564 9.43492 19.1246L10.1661 19.2063C10.8669 19.2846 11.5701 19.3338 12.274 19.3538C12.3893 19.3571 12.484 19.2642 12.484 19.1488L12.484 14.1322Z" fill="white"/>
<path d="M13.7238 19.3538C13.6085 19.3571 13.5137 19.2642 13.5137 19.1488L13.5137 14.1322C13.5137 14.0184 13.6059 13.9262 13.7197 13.9262H17.3585C17.637 13.9262 17.8749 14.1269 17.9219 14.4013C18.0744 15.2908 18.0744 16.1998 17.9219 17.0893L17.768 17.9879C17.6643 18.5929 17.1729 19.0564 16.5628 19.1246L15.8317 19.2063C15.1309 19.2846 14.4277 19.3338 13.7238 19.3538Z" fill="white"/>
</svg>
