<svg width="20" height="20" viewBox="0 0 20 20" fill="none" xmlns="http://www.w3.org/2000/svg">
<path d="M10.6276 9.37565C10.6619 9.37565 10.3476 9.37557 10.0024 9.37557C9.65726 9.37557 9.3776 9.37565 9.3776 9.37565L5.83594 9.375C5.49076 9.375 5.21094 9.65482 5.21094 10C5.21094 10.3452 5.49076 10.625 5.83594 10.625H9.3776C9.3776 10.625 9.65743 10.625 10.0026 10.625C10.3478 10.625 10.4595 10.625 10.6276 10.625H14.1693C14.5144 10.625 14.7943 10.3452 14.7943 10C14.7943 9.65482 14.5144 9.375 14.1693 9.375L10.6276 9.37565Z" fill="#9CA3AF"/>
<path d="M10.6276 9.37565C10.6619 9.37565 10.3476 9.37557 10.0024 9.37557C9.65726 9.37557 9.3776 9.37565 9.3776 9.37565L5.83594 9.375C5.49076 9.375 5.21094 9.65482 5.21094 10C5.21094 10.3452 5.49076 10.625 5.83594 10.625H9.3776C9.3776 10.625 9.65743 10.625 10.0026 10.625C10.3478 10.625 10.4595 10.625 10.6276 10.625H14.1693C14.5144 10.625 14.7943 10.3452 14.7943 10C14.7943 9.65482 14.5144 9.375 14.1693 9.375L10.6276 9.37565Z" fill="#9CA3AF"/>
<rect x="0.5" y="0.5" width="19" height="19" rx="9.5" stroke="#9CA3AF"/>
</svg>
