<svg width="40" height="40" viewBox="0 0 40 40" fill="none" xmlns="http://www.w3.org/2000/svg">
<g clip-path="url(#clip0_1001_19984)">
<path d="M19.9915 20.094C21.0356 20.0943 22.0563 19.7851 22.9245 19.2053C23.7928 18.6255 24.4696 17.8012 24.8694 16.8367C25.2692 15.8723 25.374 14.8109 25.1705 13.7869C24.967 12.7628 24.4644 11.8221 23.7263 11.0838C22.9882 10.3454 22.0477 9.84248 21.0237 9.63867C19.9997 9.43485 18.9383 9.53927 17.9737 9.93873C17.0091 10.3382 16.1846 11.0147 15.6045 11.8828C15.0245 12.7509 14.7148 13.7715 14.7148 14.8155C14.7167 16.2146 15.2732 17.5558 16.2623 18.5453C17.2514 19.5347 18.5925 20.0916 19.9915 20.094ZM19.9915 12.6277C20.4247 12.6273 20.8483 12.7555 21.2087 12.996C21.569 13.2364 21.8499 13.5784 22.0159 13.9786C22.1818 14.3787 22.2253 14.8191 22.1409 15.2441C22.0565 15.669 21.8479 16.0593 21.5416 16.3656C21.2352 16.6719 20.8449 16.8805 20.42 16.9649C19.9951 17.0494 19.5547 17.0059 19.1545 16.8399C18.7544 16.674 18.4124 16.393 18.1719 16.0327C17.9315 15.6723 17.8033 15.2488 17.8037 14.8155C17.8041 14.2354 18.0348 13.6792 18.445 13.269C18.8552 12.8588 19.4114 12.6282 19.9915 12.6277Z" fill="#384450"/>
<path d="M22.1311 24.3902C23.2195 24.1421 24.258 23.7112 25.2022 23.1157C25.375 23.0074 25.5246 22.8661 25.6427 22.7C25.7609 22.5338 25.8451 22.346 25.8906 22.1473C25.9361 21.9485 25.9421 21.7428 25.9081 21.5418C25.8741 21.3408 25.8009 21.1484 25.6926 20.9757C25.5842 20.803 25.4429 20.6533 25.2768 20.5352C25.1106 20.4171 24.9228 20.3329 24.7241 20.2873C24.5254 20.2418 24.3196 20.2359 24.1186 20.2698C23.9176 20.3038 23.7252 20.3771 23.5525 20.4854C22.4867 21.15 21.2559 21.5023 19.9999 21.5023C18.7439 21.5023 17.5131 21.15 16.4473 20.4854C16.2743 20.3769 16.0815 20.3037 15.8802 20.2697C15.6788 20.2357 15.4727 20.2418 15.2736 20.2875C15.0746 20.3332 14.8865 20.4176 14.7201 20.536C14.5536 20.6544 14.4122 20.8044 14.3037 20.9775C14.1953 21.1505 14.122 21.3433 14.0881 21.5446C14.0541 21.746 14.0601 21.9521 14.1058 22.1512C14.1515 22.3502 14.236 22.5383 14.3544 22.7047C14.4728 22.8712 14.6228 23.0126 14.7958 23.1211C15.7389 23.7189 16.7777 24.15 17.867 24.3955L14.9109 27.3516C14.767 27.4953 14.6528 27.6659 14.5749 27.8538C14.497 28.0417 14.4569 28.243 14.4569 28.4464C14.4569 28.6498 14.497 28.8512 14.5749 29.039C14.6528 29.2269 14.767 29.3975 14.9109 29.5412C15.2036 29.8281 15.595 29.9921 16.0048 29.9997C16.209 30.0016 16.4114 29.962 16.5998 29.8831C16.7882 29.8043 16.9585 29.688 17.1005 29.5412L20.0088 26.6329L22.9206 29.5359C23.2135 29.8136 23.6032 29.9661 24.0069 29.9607C24.4105 29.9553 24.7961 29.7926 25.0815 29.5072C25.3669 29.2218 25.5296 28.8362 25.535 28.4326C25.5404 28.029 25.3879 27.6392 25.1102 27.3463L22.1311 24.3902Z" fill="#384450"/>
</g>
<defs>
<clipPath id="clip0_1001_19984">
<rect width="40.0002" height="40.0002" fill="white"/>
</clipPath>
</defs>
</svg>
