<svg width="117" height="25" viewBox="0 0 117 25" fill="none" xmlns="http://www.w3.org/2000/svg">
<g clip-path="url(#clip0_0_42238)">
<path d="M12.6122 23.9125C19.2972 23.9125 24.7165 18.5814 24.7165 12.0051C24.7165 5.42879 19.2972 0.0976562 12.6122 0.0976562C5.92711 0.0976562 0.507812 5.42879 0.507812 12.0051C0.507812 18.5814 5.92711 23.9125 12.6122 23.9125Z" fill="#CE2457"/>
<path fill-rule="evenodd" clip-rule="evenodd" d="M11.7518 5.0587C7.99556 5.36138 5.04297 8.46122 5.04297 12.2406C5.04297 16.2205 8.31716 19.4467 12.356 19.4467C16.3949 19.4467 19.6691 16.2205 19.6691 12.2406C19.6691 8.46078 16.7158 5.36069 12.9589 5.05859L12.7619 9.79179C13.9594 9.98303 14.8737 11.0066 14.8737 12.2406C14.8737 13.6107 13.7464 14.7215 12.356 14.7215C10.9655 14.7215 9.83829 13.6107 9.83829 12.2406C9.83829 11.007 10.752 9.98378 11.9488 9.79201L11.7518 5.0587Z" fill="white"/>
<path d="M12.6146 4.56279C13.4502 4.56279 14.1276 3.8964 14.1276 3.07436C14.1276 2.25233 13.4502 1.58594 12.6146 1.58594C11.779 1.58594 11.1016 2.25233 11.1016 3.07436C11.1016 3.8964 11.779 4.56279 12.6146 4.56279Z" fill="white"/>
<path d="M41.3543 12.2525C41.3543 13.9193 40.7389 15.2656 39.5764 16.3555C38.4138 17.4453 36.9777 17.9582 35.268 17.9582C33.5584 17.9582 32.1907 17.4453 30.9597 16.3555C29.8655 15.2656 29.25 13.9193 29.25 12.2525C29.25 10.5857 29.8655 9.23943 31.0281 8.14959C32.1907 7.05975 33.6267 6.54688 35.268 6.54688C36.9093 6.54688 38.4138 7.05975 39.5764 8.14959C40.7389 9.23943 41.3543 10.5857 41.3543 12.2525ZM39.0976 12.2525C39.0976 11.2909 38.7557 10.4575 38.0035 9.81638C37.3196 9.17529 36.3622 8.85474 35.268 8.85474C34.1739 8.85474 33.2848 9.17529 32.5325 9.81638C31.7803 10.4575 31.4384 11.2909 31.4384 12.2525C31.4384 13.2142 31.7803 14.0475 32.5325 14.6886C33.2164 15.3297 34.1739 15.6503 35.268 15.6503C36.3622 15.6503 37.3196 15.3297 38.0035 14.6886C38.7557 14.0475 39.0976 13.2142 39.0976 12.2525Z" fill="black"/>
<path d="M48.1805 17.462H45.6924V9.03669H41.8594V7.04297H51.9463V9.03669H48.1805V17.462Z" fill="black"/>
<path d="M57.9091 17.9581C56.1005 17.9581 54.6396 17.7013 53.457 17.1876V15.133C54.7788 15.7108 56.17 15.9677 57.5614 15.9677C58.6048 15.9677 59.3701 15.8393 59.9961 15.5824C60.5526 15.3256 60.9005 14.9404 60.9005 14.4909C60.9005 13.5921 60.0657 13.2068 58.3266 13.2068H56.17V11.3448H58.3266C59.7875 11.3448 60.4831 10.9596 60.4831 10.1891C60.4831 9.35441 59.5092 8.96913 57.6309 8.96913C56.3787 8.96913 55.1266 9.22601 53.8048 9.73968V7.74924C54.9875 7.29979 56.4483 7.04297 58.1874 7.04297C59.5788 7.04297 60.7614 7.29979 61.7353 7.81344C62.6396 8.32713 63.1266 9.03337 63.1266 9.80385C63.1266 10.9596 62.5005 11.7301 61.3179 12.1153C62.7787 12.5647 63.544 13.3994 63.544 14.6836C63.544 15.6467 63.057 16.4813 62.0136 17.0592C60.9701 17.7013 59.5788 17.9581 57.9091 17.9581Z" fill="black"/>
<path d="M76.6629 12.2525C76.6629 13.9193 76.051 15.2656 74.8951 16.3555C73.739 17.4453 72.3109 17.9582 70.6108 17.9582C68.9107 17.9582 67.5507 17.4453 66.3266 16.3555C65.1706 15.2656 64.5586 13.9193 64.5586 12.2525C64.5586 10.5857 65.1706 9.23943 66.3266 8.14959C67.5507 7.05975 68.9788 6.54688 70.6788 6.54688C72.3789 6.54688 73.807 7.05975 74.963 8.14959C76.051 9.23943 76.6629 10.5857 76.6629 12.2525ZM74.487 12.2525C74.487 11.2909 74.147 10.4575 73.3989 9.81638C72.719 9.17529 71.7669 8.85474 70.6788 8.85474C69.5908 8.85474 68.7067 9.17529 67.9587 9.81638C67.2107 10.4575 66.8707 11.2909 66.8707 12.2525C66.8707 13.2142 67.2107 14.0475 67.9587 14.6886C68.6388 15.3297 69.5908 15.6503 70.6788 15.6503C71.7669 15.6503 72.719 15.3297 73.3989 14.6886C74.079 14.0475 74.487 13.2142 74.487 12.2525Z" fill="black"/>
<path d="M85.7694 17.462H79.1836V7.04297H85.4298C86.5161 7.04297 87.3984 7.30023 88.0776 7.75046C88.7568 8.20065 89.0282 8.90808 89.0282 9.67985C89.0282 10.1944 88.8925 10.6446 88.6204 11.0305C88.349 11.4163 88.0094 11.7379 87.5341 11.9309C89.0282 12.3167 89.7749 13.2172 89.7749 14.6321C89.7749 15.5325 89.4353 16.2399 88.6886 16.7545C88.0094 17.2047 87.0588 17.462 85.7694 17.462ZM81.6957 8.90808V11.2234H84.8188C85.3616 11.2234 85.7694 11.0948 86.1083 10.9019C86.3804 10.7089 86.5836 10.3873 86.5836 10.0658C86.5836 9.294 86.0408 8.90808 84.8863 8.90808H81.6957ZM81.6957 13.0242V15.5968H85.2941C85.9051 15.5968 86.3122 15.4682 86.6518 15.2753C86.9914 15.018 87.1271 14.7607 87.1271 14.3105C87.1271 13.9246 86.9914 13.603 86.6518 13.3458C86.3122 13.0886 85.8369 13.0242 85.2941 13.0242H81.6957Z" fill="black"/>
<path d="M94.1755 17.462H91.793V7.04297H94.3115V14.1176L100.506 7.04297H102.889V17.462H100.37V10.3874L94.1755 17.462Z" fill="black"/>
<path d="M108.428 17.462H105.906V7.04297H108.428V17.462Z" fill="black"/>
<path d="M110.94 11.8183L115.999 16.9658H112.733L107.93 11.9424L112.413 7.04297H115.551L110.94 11.8183Z" fill="black"/>
</g>
<defs>
<clipPath id="clip0_0_42238">
<rect width="116" height="23.8148" fill="white" transform="translate(0.5 0.59375)"/>
</clipPath>
</defs>
</svg>
