<svg width="20" height="20" viewBox="0 0 20 20" fill="none" xmlns="http://www.w3.org/2000/svg">
<path d="M10.6276 9.37565C10.6619 9.37565 10.3476 9.37557 10.0024 9.37557C9.65726 9.37557 9.3776 9.37565 9.3776 9.37565L5.83594 9.375C5.49076 9.375 5.21094 9.65482 5.21094 10C5.21094 10.3452 5.49076 10.625 5.83594 10.625H9.3776C9.3776 10.625 9.65743 10.625 10.0026 10.625C10.3478 10.625 10.4595 10.625 10.6276 10.625H14.1693C14.5144 10.625 14.7943 10.3452 14.7943 10C14.7943 9.65482 14.5144 9.375 14.1693 9.375L10.6276 9.37565Z" fill="#111C27"/>
<path d="M9.37565 9.37435C9.37565 9.34002 9.37557 9.65433 9.37557 9.99951C9.37557 10.3447 9.37565 10.6243 9.37565 10.6243L9.375 14.166C9.375 14.5112 9.65482 14.791 10 14.791C10.3452 14.791 10.625 14.5112 10.625 14.166V10.6243C10.625 10.6243 10.625 10.3445 10.625 9.99935C10.625 9.65417 10.625 9.54248 10.625 9.37435V5.83268C10.625 5.4875 10.3452 5.20768 10 5.20768C9.65482 5.20768 9.375 5.4875 9.375 5.83268L9.37565 9.37435Z" fill="#111C27"/>
<rect x="0.5" y="0.5" width="19" height="19" rx="9.5" stroke="#111C27"/>
</svg>
