<svg width="139" height="14" viewBox="0 0 139 14" fill="none" xmlns="http://www.w3.org/2000/svg">
<g clip-path="url(#clip0_0_42218)">
<mask id="mask0_0_42218" style="mask-type:luminance" maskUnits="userSpaceOnUse" x="0" y="0" width="140" height="14">
<path d="M139.017 0.796875H0.5V13.2014H139.017V0.796875Z" fill="white"/>
</mask>
<g mask="url(#mask0_0_42218)">
<path fill-rule="evenodd" clip-rule="evenodd" d="M6.11205 0.796878C6.13642 0.796878 6.16086 0.79688 6.18538 0.79688C6.20992 0.79688 6.23437 0.796878 6.25873 0.796878C7.27525 0.796825 8.14736 0.79678 8.84495 0.888009C9.59107 0.985586 10.301 1.20494 10.8761 1.76437C11.4513 2.32381 11.6767 3.01432 11.7771 3.74008C11.8709 4.41863 11.8708 5.26692 11.8708 6.25568V11.6081C11.8708 12.2026 11.3754 12.6845 10.7642 12.6845C10.1531 12.6845 9.65766 12.2026 9.65766 11.6081V6.32702C9.65766 5.24682 9.65528 4.54495 9.58368 4.02693C9.51639 3.53986 9.40661 3.37935 9.31117 3.28655C9.21581 3.19374 9.05079 3.08697 8.55006 3.02148C8.01749 2.95184 7.29592 2.94956 6.18538 2.94956C5.07486 2.94956 4.35329 2.95184 3.82072 3.02148C3.31999 3.08697 3.15497 3.19374 3.05956 3.28655C2.96415 3.37935 2.85438 3.53986 2.78706 4.02693C2.71546 4.54495 2.71311 5.24682 2.71311 6.32702V11.6081C2.71311 12.2026 2.21769 12.6845 1.60656 12.6845C0.995425 12.6845 0.500005 12.2026 0.500005 11.6081V6.32702C0.500005 6.30317 0.500004 6.27938 0.500003 6.25568C0.499949 5.26692 0.499903 4.41863 0.593692 3.74008C0.694009 3.01432 0.919518 2.32381 1.49466 1.76437C2.0698 1.20494 2.77969 0.985586 3.52583 0.888009C4.22342 0.79678 5.09552 0.796825 6.11205 0.796878Z" fill="#D93B33"/>
<path fill-rule="evenodd" clip-rule="evenodd" d="M13.9375 2.62861C13.9375 1.61697 14.794 0.796875 15.8506 0.796875H21.3166C23.2357 0.796875 24.7914 2.28644 24.7914 4.12391V5.34599C24.7914 7.18347 23.2357 8.67303 21.3166 8.67303H16.202V11.6004C16.202 12.1991 15.6951 12.6845 15.0698 12.6845C14.4444 12.6845 13.9375 12.1991 13.9375 11.6004V2.62861ZM16.202 6.50485H21.3166C21.9851 6.50485 22.5269 5.98601 22.5269 5.34599V4.12391C22.5269 3.48389 21.9851 2.96506 21.3166 2.96506H16.202V6.50485Z" fill="#D93B33"/>
<path fill-rule="evenodd" clip-rule="evenodd" d="M102.836 2.62862C102.836 1.61697 103.693 0.796875 104.749 0.796875H110.215C112.134 0.796875 113.69 2.28644 113.69 4.12391V5.346C113.69 7.18347 112.134 8.67302 110.215 8.67302H105.1V11.6004C105.1 12.1991 104.594 12.6845 103.968 12.6845C103.343 12.6845 102.836 12.1991 102.836 11.6004V2.62862ZM105.1 6.50485H110.215C110.883 6.50485 111.425 5.98601 111.425 5.346V4.12391C111.425 3.48389 110.883 2.96506 110.215 2.96506H105.1V6.50485Z" fill="#2F6EBA"/>
<path fill-rule="evenodd" clip-rule="evenodd" d="M130.281 0.796901L130.229 0.796888C129.915 0.796773 129.579 0.79665 129.297 0.83409C128.966 0.8778 128.547 0.98969 128.196 1.33557C127.845 1.68144 127.731 2.09286 127.686 2.41796C127.648 2.69644 127.648 3.02703 127.648 3.33588V3.38668V6.3333C127.648 6.33599 127.648 6.33868 127.648 6.34137C127.648 6.34362 127.648 6.34587 127.648 6.34813V11.596C127.648 12.1971 128.144 12.6844 128.755 12.6844C128.812 12.6844 128.868 12.6802 128.923 12.672C128.978 12.6802 129.034 12.6844 129.091 12.6844H135.241L135.305 12.6845C135.597 12.6846 135.844 12.6848 136.066 12.6559C137.59 12.4585 138.79 11.279 138.99 9.78005C139.019 9.56082 139.019 9.31757 139.019 9.03078V8.96871V8.90663C139.019 8.61985 139.019 8.37662 138.99 8.15736C138.882 7.3513 138.485 6.6376 137.905 6.11933C138.364 5.57266 138.637 4.87242 138.637 4.08936C138.637 2.24449 137.117 0.796901 135.241 0.796901H130.281ZM129.862 7.33202V10.5075H135.241C135.631 10.5075 135.719 10.5052 135.778 10.4976C136.308 10.4288 136.726 10.018 136.796 9.49593C136.803 9.43811 136.806 9.35191 136.806 8.96869C136.806 8.58547 136.803 8.49927 136.796 8.44149C136.726 7.91938 136.308 7.41071 135.778 7.34197C135.719 7.33436 135.631 7.33202 135.241 7.33202H129.862ZM135.241 5.2529H129.862V3.38668C129.862 3.2206 129.862 3.08915 129.864 2.97621C129.979 2.97388 130.112 2.97382 130.281 2.97382H135.241C135.895 2.97382 136.424 3.44677 136.424 4.08936C136.424 4.73197 135.895 5.2529 135.241 5.2529Z" fill="#2F6EBA"/>
<path fill-rule="evenodd" clip-rule="evenodd" d="M58.3238 0.796877C58.3453 0.796878 58.3669 0.796879 58.3885 0.796879C58.4102 0.796879 58.4317 0.796878 58.4533 0.796877C59.3573 0.796841 60.1334 0.79681 60.7627 0.86164C61.4308 0.930477 62.0783 1.08371 62.6497 1.4844C62.9021 1.6614 63.128 1.86788 63.3217 2.09854C63.7601 2.62074 63.9277 3.21262 64.003 3.82322C64.074 4.39828 64.0739 5.10758 64.0739 5.93384V7.54755C64.0739 8.37381 64.074 9.08311 64.003 9.65816C63.9277 10.2688 63.7601 10.8607 63.3217 11.3829C63.128 11.6135 62.9021 11.82 62.6497 11.997C62.0783 12.3977 61.4308 12.5509 60.7627 12.6198C60.1334 12.6846 59.3573 12.6845 58.4533 12.6845H58.3238C57.4197 12.6845 56.6436 12.6846 56.0144 12.6198C55.3464 12.5509 54.6987 12.3977 54.1274 11.997C53.875 11.82 53.6491 11.6135 53.4554 11.3829C53.017 10.8607 52.8493 10.2688 52.774 9.65816C52.7031 9.08311 52.7031 8.3738 52.7031 7.54753V5.99305C52.7031 5.97325 52.7031 5.95352 52.7031 5.93386C52.7031 5.10759 52.7031 4.39829 52.774 3.82322C52.8493 3.21262 53.017 2.62074 53.4554 2.09854C53.6491 1.86788 53.875 1.6614 54.1274 1.4844C54.6987 1.08371 55.3464 0.930477 56.0144 0.86164C56.6436 0.79681 57.4197 0.796841 58.3238 0.796877ZM56.1248 3.01617C55.6683 3.06321 55.5057 3.14174 55.4162 3.20454C55.3282 3.26619 55.2496 3.33811 55.1821 3.41845C55.1134 3.5003 55.0274 3.64887 54.976 4.06611C54.9218 4.5052 54.92 5.091 54.92 5.99305V7.48835C54.92 8.39039 54.9218 8.97619 54.976 9.4153C55.0274 9.83251 55.1134 9.98109 55.1821 10.0629C55.2496 10.1433 55.3282 10.2152 55.4162 10.2769C55.5057 10.3396 55.6683 10.4181 56.1248 10.4652C56.6052 10.5147 57.4016 10.5163 58.3885 10.5163C59.3755 10.5163 60.2337 10.5147 60.7142 10.4652C61.1707 10.4181 61.3333 10.3396 61.4228 10.2769C61.5108 10.2152 61.5894 10.1433 61.6569 10.0629C61.7256 9.98109 61.8115 9.83251 61.863 9.4153C61.9171 8.97619 61.9189 8.39039 61.9189 7.48835V5.99305C61.9189 5.091 61.9171 4.5052 61.863 4.06611C61.8115 3.64887 61.7256 3.5003 61.6569 3.41845C61.5894 3.33811 61.5108 3.26619 61.4228 3.20454C61.3333 3.14174 61.1707 3.06321 60.7142 3.01617C60.2337 2.96667 59.3755 2.96506 58.3885 2.96506C57.4016 2.96506 56.6052 2.96667 56.1248 3.01617Z" fill="#2F6EBA"/>
<path fill-rule="evenodd" clip-rule="evenodd" d="M31.4449 0.796877C31.4663 0.796878 31.488 0.796879 31.5097 0.796879C31.5313 0.796879 31.5529 0.796878 31.5744 0.796877C32.4785 0.796841 33.2546 0.79681 33.8838 0.86164C34.5518 0.930477 35.1994 1.08371 35.7708 1.4844C36.0232 1.6614 36.2491 1.86788 36.4428 2.09854C36.8812 2.62074 37.0489 3.21262 37.1242 3.82322C37.1951 4.39828 37.1951 5.10758 37.195 5.93384V7.54755C37.1951 8.37381 37.1951 9.08311 37.1242 9.65816C37.0489 10.2688 36.8812 10.8607 36.4428 11.3829C36.2491 11.6135 36.0232 11.82 35.7708 11.997C35.1994 12.3977 34.5518 12.5509 33.8838 12.6198C33.2546 12.6846 32.4785 12.6845 31.5744 12.6845H31.4449C30.5408 12.6845 29.7647 12.6846 29.1355 12.6198C28.4674 12.5509 27.8198 12.3977 27.2484 11.997C26.9961 11.82 26.7701 11.6135 26.5765 11.3829C26.138 10.8607 25.9703 10.2688 25.895 9.65816C25.8241 9.08311 25.8241 8.3738 25.8242 7.54753V5.99305C25.8242 5.97325 25.8242 5.95352 25.8242 5.93386C25.8241 5.10759 25.8241 4.39829 25.895 3.82322C25.9703 3.21262 26.138 2.62074 26.5765 2.09854C26.7701 1.86788 26.9961 1.6614 27.2484 1.4844C27.8198 1.08371 28.4674 0.930477 29.1355 0.86164C29.7647 0.79681 30.5408 0.796841 31.4449 0.796877ZM29.2459 3.01617C28.7893 3.06321 28.6268 3.14174 28.5372 3.20454C28.4493 3.26619 28.3706 3.33811 28.3032 3.41845C28.2345 3.5003 28.1486 3.64887 28.0971 4.06611C28.0429 4.5052 28.0412 5.091 28.0412 5.99305V7.48835C28.0412 8.39039 28.0429 8.97619 28.0971 9.4153C28.1486 9.83251 28.2345 9.98109 28.3032 10.0629C28.3706 10.1433 28.4493 10.2152 28.5372 10.2769C28.6268 10.3396 28.7893 10.4181 29.2459 10.4652C29.7263 10.5147 30.5226 10.5163 31.5097 10.5163C32.4966 10.5163 33.3549 10.5147 33.8353 10.4652C34.2919 10.4181 34.4544 10.3396 34.544 10.2769C34.6318 10.2152 34.7105 10.1433 34.778 10.0629C34.8467 9.98109 34.9326 9.83251 34.9841 9.4153C35.0383 8.97619 35.04 8.39039 35.04 7.48835V5.99305C35.04 5.091 35.0383 4.5052 34.9841 4.06611C34.9326 3.64887 34.8467 3.5003 34.778 3.41845C34.7105 3.33811 34.6318 3.26619 34.544 3.20454C34.4544 3.14174 34.2919 3.06321 33.8353 3.01617C33.3549 2.96667 32.4966 2.96506 31.5097 2.96506C30.5226 2.96506 29.7263 2.96667 29.2459 3.01617Z" fill="#D93B33"/>
<path fill-rule="evenodd" clip-rule="evenodd" d="M95.5385 0.796877C95.5597 0.796878 95.5818 0.796878 95.603 0.796878C95.6251 0.796878 95.6463 0.796878 95.6684 0.796877C96.5718 0.796841 97.348 0.796809 97.9774 0.86164C98.6457 0.930477 99.2936 1.08371 99.8647 1.4844C100.117 1.6614 100.343 1.86787 100.536 2.09855C100.975 2.62074 101.143 3.21261 101.218 3.82321C101.289 4.39828 101.289 5.10757 101.289 5.93383V7.54754C101.289 8.37381 101.289 9.08309 101.218 9.65816C101.143 10.2688 100.975 10.8607 100.536 11.3829C100.343 11.6135 100.117 11.82 99.8647 11.997C99.2936 12.3977 98.6457 12.5509 97.9774 12.6198C97.348 12.6846 96.5718 12.6845 95.6684 12.6845H95.5385C94.6342 12.6845 93.858 12.6846 93.2295 12.6198C92.5612 12.5509 91.9133 12.3977 91.3422 11.997C91.0894 11.82 90.864 11.6135 90.6704 11.3829C90.2319 10.8607 90.064 10.2688 89.9889 9.65816C89.9172 9.08309 89.9173 8.37379 89.9181 7.54752V5.99304C89.9181 5.97325 89.9181 5.95351 89.9181 5.93385C89.9173 5.10758 89.9172 4.39828 89.9889 3.82321C90.064 3.21261 90.2319 2.62074 90.6704 2.09855C90.864 1.86787 91.0894 1.6614 91.3422 1.4844C91.9133 1.08371 92.5612 0.930477 93.2295 0.86164C93.858 0.796809 94.6342 0.796841 95.5385 0.796877ZM93.3391 3.01618C92.883 3.06321 92.7204 3.14173 92.6311 3.20453C92.5427 3.26619 92.464 3.3381 92.3968 3.41845C92.3279 3.5003 92.2421 3.64886 92.1908 4.06611C92.1369 4.50519 92.1352 5.09099 92.1352 5.99304V7.48834C92.1352 8.39039 92.1369 8.97619 92.1908 9.41531C92.2421 9.83251 92.3279 9.9811 92.3968 10.0629C92.464 10.1433 92.5427 10.2152 92.6311 10.2769C92.7204 10.3396 92.883 10.4181 93.3391 10.4652C93.82 10.5147 94.6165 10.5163 95.603 10.5163C96.5904 10.5163 97.4487 10.5147 97.9287 10.4652C98.3858 10.4181 98.5484 10.3396 98.6377 10.2769C98.7261 10.2152 98.8048 10.1433 98.872 10.0629C98.9409 9.9811 99.0267 9.83251 99.0779 9.41531C99.1318 8.97619 99.1336 8.39039 99.1336 7.48834V5.99304C99.1336 5.09099 99.1318 4.50519 99.0779 4.06611C99.0267 3.64886 98.9409 3.5003 98.872 3.41845C98.8048 3.3381 98.7261 3.26619 98.6377 3.20453C98.5484 3.14173 98.3858 3.06321 97.9287 3.01618C97.4487 2.96668 96.5904 2.96506 95.603 2.96506C94.6165 2.96506 93.82 2.96668 93.3391 3.01618Z" fill="#2F6EBA"/>
<path fill-rule="evenodd" clip-rule="evenodd" d="M120.347 0.796877C120.369 0.796878 120.39 0.796878 120.412 0.796878C120.433 0.796878 120.455 0.796878 120.476 0.796877C121.381 0.796841 122.157 0.79681 122.786 0.86164C123.454 0.930477 124.101 1.08371 124.673 1.4844C124.925 1.6614 125.152 1.86787 125.345 2.09855C125.784 2.62075 125.951 3.21262 126.027 3.82322C126.097 4.39829 126.097 5.10758 126.097 5.93385V7.54757C126.097 8.37383 126.097 9.08313 126.027 9.65823C125.951 10.2688 125.784 10.8607 125.345 11.3828C125.152 11.6135 124.925 11.82 124.673 11.997C124.101 12.3977 123.454 12.5509 122.786 12.6197C122.157 12.6846 121.381 12.6846 120.476 12.6845H120.347C119.443 12.6846 118.667 12.6846 118.038 12.6197C117.369 12.5509 116.722 12.3977 116.151 11.997C115.899 11.82 115.672 11.6135 115.479 11.3828C115.04 10.8607 114.872 10.2688 114.797 9.65823C114.727 9.08312 114.727 8.37382 114.727 7.54755V5.99305C114.727 5.97326 114.727 5.95354 114.727 5.93387C114.727 5.1076 114.727 4.39829 114.797 3.82322C114.872 3.21262 115.04 2.62075 115.479 2.09855C115.672 1.86787 115.899 1.6614 116.151 1.4844C116.722 1.08371 117.369 0.930477 118.038 0.86164C118.667 0.79681 119.443 0.796841 120.347 0.796877ZM118.148 3.01618C117.692 3.06322 117.529 3.14174 117.439 3.20454C117.352 3.26619 117.273 3.33811 117.206 3.41846C117.137 3.50031 117.051 3.64887 116.999 4.06611C116.945 4.5052 116.943 5.091 116.943 5.99305V7.48836C116.943 8.39041 116.945 8.97621 116.999 9.41529C117.051 9.83258 117.137 9.98108 117.206 10.063C117.273 10.1433 117.352 10.2152 117.439 10.2769C117.529 10.3397 117.692 10.4182 118.148 10.4652C118.629 10.5147 119.425 10.5163 120.412 10.5163C121.399 10.5163 122.258 10.5147 122.738 10.4652C123.194 10.4182 123.356 10.3397 123.446 10.2769C123.534 10.2152 123.613 10.1433 123.68 10.063C123.749 9.98108 123.834 9.83258 123.887 9.41529C123.941 8.97621 123.942 8.39041 123.942 7.48836V5.99305C123.942 5.091 123.941 4.5052 123.887 4.06611C123.834 3.64887 123.749 3.50031 123.68 3.41846C123.613 3.33811 123.534 3.26619 123.446 3.20454C123.356 3.14174 123.194 3.06322 122.738 3.01618C122.258 2.96668 121.399 2.96507 120.412 2.96507C119.425 2.96507 118.629 2.96668 118.148 3.01618Z" fill="#2F6EBA"/>
<path fill-rule="evenodd" clip-rule="evenodd" d="M48.5938 10.5873L45.2079 3.1065L41.8348 10.5873H48.5938ZM50.8691 10.5873L46.7097 1.45431C46.2874 0.581667 44.1182 0.57416 43.7013 1.45324L39.5464 10.5873H39.3264C38.7211 10.5873 38.2305 11.0568 38.2305 11.6359C38.2305 12.215 38.7211 12.6845 39.3264 12.6845H51.0896C51.6949 12.6845 52.1855 12.215 52.1855 11.6359C52.1855 11.0568 51.6949 10.5873 51.0896 10.5873H50.8691Z" fill="#2F6EBA"/>
<path fill-rule="evenodd" clip-rule="evenodd" d="M75.68 2.78483L70.0943 6.75346L75.9913 10.6835C76.4944 11.0188 76.6264 11.6925 76.2862 12.1883C75.9459 12.6841 75.2623 12.8142 74.7592 12.4788L68.4394 8.26695C68.1628 8.08264 67.9566 7.8434 67.8205 7.57714V11.6008C67.8205 12.1994 67.3281 12.6845 66.7208 12.6845C66.1134 12.6845 65.6211 12.1994 65.6211 11.6008V1.88506C65.6211 1.28657 66.1134 0.801385 66.7208 0.801385C67.3281 0.801385 67.8205 1.28657 67.8205 1.88506V5.92332C67.9594 5.65141 68.1713 5.40787 68.456 5.22248L74.4677 0.97652C74.9743 0.646594 75.6565 0.78394 75.9913 1.28329C76.3261 1.78264 76.1868 2.4549 75.68 2.78483Z" fill="#2F6EBA"/>
<path fill-rule="evenodd" clip-rule="evenodd" d="M77.5117 1.83059C77.5117 1.25968 78.0071 0.796875 78.6182 0.796875H87.7755C88.3867 0.796875 88.8825 1.25968 88.8825 1.83059C88.8825 2.40149 88.3867 2.86429 87.7755 2.86429H78.6182C78.0071 2.86429 77.5117 2.40149 77.5117 1.83059Z" fill="#2F6EBA"/>
<path fill-rule="evenodd" clip-rule="evenodd" d="M83.1978 0.796875C83.7687 0.796875 84.2315 1.28224 84.2315 1.88097V11.6004C84.2315 12.1991 83.7687 12.6845 83.1978 12.6845C82.6269 12.6845 82.1641 12.1991 82.1641 11.6004V1.88097C82.1641 1.28224 82.6269 0.796875 83.1978 0.796875Z" fill="#2F6EBA"/>
</g>
</g>
<defs>
<clipPath id="clip0_0_42218">
<rect width="138" height="12.4045" fill="white" transform="translate(0.5 0.796875)"/>
</clipPath>
</defs>
</svg>
