<svg width="16" height="15" viewBox="0 0 16 15" fill="none" xmlns="http://www.w3.org/2000/svg">
<path d="M7.05249 0.808124C7.35854 -0.0989294 8.64146 -0.0989268 8.94752 0.808127L10.0773 4.15642C10.2132 4.55905 10.5886 4.83186 11.0135 4.83664L14.5471 4.87645C15.5043 4.88723 15.9008 6.10736 15.1327 6.67873L12.2974 8.78789C11.9564 9.04152 11.813 9.48293 11.9398 9.88852L12.9938 13.2614C13.2794 14.1751 12.2415 14.9292 11.4607 14.3753L8.57864 12.3305C8.23206 12.0846 7.76794 12.0846 7.42136 12.3305L4.53928 14.3753C3.75852 14.9292 2.72062 14.1751 3.00617 13.2614L4.06023 9.88852C4.18699 9.48293 4.04357 9.04152 3.70262 8.78789L0.867321 6.67873C0.0992393 6.10736 0.495684 4.88723 1.45292 4.87645L4.98646 4.83664C5.41137 4.83186 5.78685 4.55905 5.92271 4.15642L7.05249 0.808124Z" fill="#30B5DF"/>
</svg>
