<svg width="36" height="36" viewBox="0 0 36 36" fill="none" xmlns="http://www.w3.org/2000/svg">
<rect width="36" height="36" rx="18" fill="url(#paint0_linear_1808_27228)"/>
<path fill-rule="evenodd" clip-rule="evenodd" d="M8.14753 17.8089C13.3949 15.5228 16.894 14.0156 18.6447 13.2874C23.6435 11.2082 24.6822 10.847 25.3592 10.8351C25.5082 10.8325 25.8411 10.8694 26.0567 11.0444C26.2388 11.1921 26.289 11.3917 26.3129 11.5318C26.3369 11.6719 26.3668 11.9911 26.343 12.2404C26.0721 15.0866 24.9 21.9937 24.3037 25.1815C24.0514 26.5304 23.5546 26.9827 23.0736 27.0269C22.0283 27.1231 21.2345 26.3361 20.2221 25.6725C18.6379 24.634 17.7429 23.9875 16.2051 22.9741C14.428 21.803 15.58 21.1594 16.5928 20.1074C16.8579 19.8321 21.4635 15.643 21.5526 15.263C21.5637 15.2154 21.5741 15.0383 21.4688 14.9447C21.3636 14.8512 21.2083 14.8832 21.0962 14.9086C20.9373 14.9447 18.4064 16.6175 13.5037 19.927C12.7853 20.4203 12.1346 20.6606 11.5516 20.648C10.9089 20.6341 9.67265 20.2846 8.7536 19.9859C7.62635 19.6194 6.73043 19.4257 6.80845 18.8034C6.84908 18.4793 7.29544 18.1478 8.14753 17.8089Z" fill="white"/>
<defs>
<linearGradient id="paint0_linear_1808_27228" x1="18" y1="0" x2="18" y2="35.733" gradientUnits="userSpaceOnUse">
<stop stop-color="#2AABEE"/>
<stop offset="1" stop-color="#229ED9"/>
</linearGradient>
</defs>
</svg>
