<svg width="36" height="36" viewBox="0 0 36 36" fill="none" xmlns="http://www.w3.org/2000/svg">
<g clip-path="url(#clip0_1808_27229)">
<path d="M17.998 36C27.9392 36 35.998 27.9411 35.998 18C35.998 8.05888 27.9392 0 17.998 0C8.05692 0 -0.00195312 8.05888 -0.00195312 18C-0.00195312 27.9411 8.05692 36 17.998 36Z" fill="#713EA4"/>
<path d="M24.8393 11.1904C24.3789 10.7634 22.5119 9.40878 18.3543 9.39037C18.3543 9.39037 13.4516 9.094 11.0622 11.2875C9.7227 12.617 9.26391 14.5643 9.22038 16.9805C9.17684 19.3967 9.10651 23.9176 13.4684 25.145V27.017C13.4684 27.017 13.4399 27.7738 13.9389 27.9295C14.5417 28.1154 14.8967 27.5394 15.4727 26.9249C15.7891 26.59 16.2261 26.0877 16.5543 25.7009C19.5381 25.952 21.8304 25.3777 22.0916 25.2923C22.6944 25.0981 26.1019 24.6611 26.6561 20.1368C27.222 15.4685 26.3731 12.5199 24.8393 11.1904ZM25.3417 19.7969C24.8745 23.5727 22.11 23.8155 21.601 23.9746C20.0429 24.3545 18.4355 24.4912 16.8356 24.3798C16.8356 24.3798 14.9519 26.657 14.3625 27.2497C14.3294 27.2889 14.2872 27.3194 14.2397 27.3386C14.1921 27.3579 14.1406 27.3653 14.0896 27.3602C13.9891 27.3351 13.9607 27.2162 13.9623 27.0404C13.9623 26.7893 13.9774 23.9293 13.9774 23.9293C10.2937 22.9046 10.5047 19.0551 10.5465 17.0391C10.5884 15.0231 10.9668 13.3705 12.092 12.2603C14.113 10.4285 18.2773 10.7031 18.2773 10.7031C21.7936 10.7182 23.4797 11.7764 23.8699 12.1314C25.1675 13.2432 25.8289 15.9005 25.345 19.7952L25.3417 19.7969Z" fill="white"/>
<path d="M20.0653 17.1081C20.0051 17.1081 19.9472 17.0851 19.9036 17.0436C19.8599 17.0021 19.8339 16.9455 19.8309 16.8854C19.7907 16.0867 19.4157 15.6949 18.6488 15.6547C18.5866 15.6516 18.5282 15.6239 18.4864 15.5777C18.4447 15.5316 18.423 15.4707 18.4261 15.4085C18.4292 15.3464 18.4569 15.288 18.503 15.2462C18.5492 15.2044 18.61 15.1827 18.6722 15.1858C19.6769 15.2394 20.2478 15.8188 20.2997 16.8603C20.3025 16.9223 20.2806 16.983 20.239 17.0291C20.1973 17.0751 20.1391 17.1029 20.0771 17.1064L20.0653 17.1081Z" fill="white"/>
<path d="M21.2713 17.5127C21.209 17.5109 21.1499 17.4846 21.1069 17.4394C21.0639 17.3943 21.0405 17.3339 21.0419 17.2716C21.063 16.91 21.0119 16.5479 20.8914 16.2063C20.771 15.8648 20.5836 15.5507 20.3403 15.2824C19.8514 14.7482 19.1816 14.4586 18.2925 14.3933C18.2617 14.3911 18.2317 14.3828 18.2041 14.369C18.1765 14.3552 18.1518 14.3361 18.1316 14.3128C18.1114 14.2894 18.096 14.2624 18.0863 14.2331C18.0765 14.2038 18.0726 14.1729 18.0748 14.1421C18.077 14.1113 18.0853 14.0813 18.0991 14.0537C18.1129 14.0261 18.132 14.0015 18.1553 13.9812C18.1786 13.961 18.2057 13.9456 18.235 13.9359C18.2643 13.9261 18.2952 13.9222 18.326 13.9244C19.3306 13.9964 20.121 14.3481 20.6869 14.9659C20.9702 15.2785 21.189 15.644 21.3307 16.0414C21.4723 16.4388 21.5341 16.8603 21.5124 17.2816C21.5117 17.3126 21.505 17.3432 21.4925 17.3716C21.48 17.4 21.4621 17.4257 21.4397 17.4471C21.4173 17.4686 21.3909 17.4854 21.362 17.4967C21.3331 17.5079 21.3023 17.5134 21.2713 17.5127Z" fill="white"/>
<path d="M22.5078 17.9955C22.4459 17.9955 22.3866 17.971 22.3427 17.9274C22.2987 17.8838 22.2738 17.8246 22.2734 17.7628C22.2617 16.3445 21.8364 15.216 21.0075 14.4139C20.5949 14.0124 20.1067 13.6968 19.5713 13.4853C19.0358 13.2737 18.4637 13.1705 17.8881 13.1815C17.8291 13.1766 17.7742 13.1496 17.7341 13.1061C17.6941 13.0625 17.6719 13.0055 17.6719 12.9463C17.6719 12.8871 17.6941 12.8301 17.7341 12.7865C17.7742 12.743 17.8291 12.716 17.8881 12.711C18.5238 12.6976 19.1558 12.8104 19.7476 13.0429C20.3394 13.2755 20.8792 13.6231 21.3357 14.0656C22.2583 14.9648 22.7305 16.2055 22.7422 17.7494C22.7427 17.7802 22.737 17.8108 22.7255 17.8395C22.714 17.8681 22.6969 17.8941 22.6753 17.9161C22.6536 17.9381 22.6278 17.9555 22.5993 17.9674C22.5709 17.9793 22.5403 17.9855 22.5095 17.9855L22.5078 17.9955Z" fill="white"/>
<path d="M18.7079 20.0226C18.8005 20.0284 18.8934 20.0143 18.98 19.981C19.0667 19.9478 19.1452 19.8963 19.2102 19.83L19.5585 19.3947C19.6781 19.2623 19.8405 19.1763 20.0172 19.1518C20.1939 19.1273 20.3736 19.1659 20.5246 19.2607C20.8214 19.4288 21.1092 19.6121 21.387 19.8099C21.6482 20.0041 22.1857 20.4512 22.1873 20.4512C22.3121 20.5544 22.3952 20.6993 22.4214 20.8591C22.4476 21.0188 22.415 21.1826 22.3297 21.3202C22.1371 21.653 21.893 21.9531 21.6063 22.2094C21.4014 22.3962 21.1466 22.5195 20.8729 22.5643C20.8373 22.5685 20.8014 22.5685 20.7658 22.5643C20.66 22.565 20.5548 22.5486 20.4543 22.5158V22.5041C20.0843 22.4002 19.4664 22.139 18.445 21.5714C17.8464 21.2541 17.2761 20.8861 16.7405 20.4713C16.4735 20.2633 16.2191 20.0396 15.9786 19.8015L15.9518 19.7764L15.9267 19.7496L15.9016 19.7245L15.8748 19.6994C15.6375 19.4581 15.4139 19.2037 15.205 18.9375C14.7817 18.4068 14.4041 17.841 14.0764 17.2464C13.5088 16.2183 13.2392 15.6021 13.1438 15.2371H13.1321C13.0998 15.1365 13.084 15.0313 13.0852 14.9256C13.081 14.89 13.081 14.8541 13.0852 14.8185C13.1291 14.5376 13.2542 14.2756 13.4452 14.065C13.7013 13.7782 14.0015 13.5341 14.3343 13.3416C14.4716 13.2566 14.6349 13.224 14.7943 13.2498C14.9536 13.2757 15.0983 13.3582 15.2017 13.4823C15.2017 13.4823 15.6504 14.0214 15.843 14.2827C16.0355 14.5439 16.2381 14.8402 16.4056 15.1366C16.4998 15.2879 16.5379 15.4674 16.5135 15.6439C16.489 15.8204 16.4034 15.9828 16.2716 16.1028L15.8346 16.4494C15.7686 16.5145 15.7174 16.5931 15.6845 16.6797C15.6515 16.7664 15.6376 16.8592 15.6437 16.9517C15.6437 16.9517 16.2917 19.4047 18.7079 20.0226Z" fill="white"/>
</g>
<defs>
<clipPath id="clip0_1808_27229">
<rect width="36" height="36" fill="white"/>
</clipPath>
</defs>
</svg>
