<svg width="27" height="26" viewBox="0 0 27 26" fill="none" xmlns="http://www.w3.org/2000/svg">
<path d="M16.3297 5.25104C16.2234 4.40102 15.2193 4.00476 14.5612 4.55317L9.12382 9.0843C9.02647 9.16542 8.90377 9.20985 8.77705 9.20985H4.5651C3.81722 9.20985 3.21094 9.81613 3.21094 10.564V15.439C3.21094 16.1869 3.81722 16.7932 4.5651 16.7932H8.77705C8.90377 16.7932 9.02647 16.8376 9.12382 16.9187L14.5612 21.4499C15.2193 21.9983 16.2234 21.602 16.3297 20.752L16.4335 19.9216C17.0079 15.3261 17.0079 10.6769 16.4335 6.08141L16.3297 5.25104Z" fill="#384450"/>
<path d="M22.0698 6.44277C22.4958 6.30186 22.9554 6.533 23.0963 6.95904C23.7251 8.86025 24.0651 10.892 24.0651 13.0015C24.0651 15.1111 23.7251 17.1428 23.0963 19.044C22.9554 19.47 22.4958 19.7012 22.0698 19.5603C21.6437 19.4194 21.4126 18.9598 21.5535 18.5337C22.1285 16.7951 22.4401 14.9355 22.4401 13.0015C22.4401 11.0675 22.1285 9.20797 21.5535 7.4693C21.4126 7.04327 21.6437 6.58367 22.0698 6.44277Z" fill="#384450"/>
<path d="M20.0376 8.61152C19.8828 8.19032 19.4159 7.97433 18.9947 8.12908C18.5735 8.28384 18.3575 8.75075 18.5123 9.17195C18.9505 10.3646 19.1901 11.6542 19.1901 13.0015C19.1901 14.1191 19.0252 15.1967 18.7191 16.2121C18.702 16.2687 18.6845 16.3251 18.6666 16.3813C18.6183 16.5327 18.5668 16.6826 18.5123 16.8311C18.3575 17.2523 18.5735 17.7192 18.9947 17.874C19.4159 18.0287 19.8828 17.8127 20.0376 17.3915C20.1002 17.2212 20.1592 17.0491 20.2147 16.8754C20.2353 16.8109 20.2553 16.7462 20.2749 16.6812C20.6264 15.5153 20.8151 14.2797 20.8151 13.0015C20.8151 11.4602 20.5408 9.98104 20.0376 8.61152Z" fill="#384450"/>
</svg>
