<svg width="33" height="32" viewBox="0 0 33 32" fill="none" xmlns="http://www.w3.org/2000/svg">
<g clip-path="url(#clip0_86_8314)">
<path d="M16.5 32C25.3366 32 32.5 24.8366 32.5 16C32.5 7.16344 25.3366 0 16.5 0C7.66344 0 0.5 7.16344 0.5 16C0.5 24.8366 7.66344 32 16.5 32Z" fill="#25D366"/>
<path d="M8.67188 23.9634L9.7956 19.8614C8.92624 18.3519 8.57916 16.5977 8.80815 14.8708C9.03714 13.1439 9.82941 11.5408 11.0622 10.31C12.2949 9.0792 13.8992 8.28944 15.6265 8.06316C17.3537 7.83689 19.1074 8.18673 20.6155 9.05846C22.1237 9.93019 23.3022 11.2751 23.9683 12.8847C24.6344 14.4943 24.7509 16.2787 24.2997 17.9613C23.8485 19.6438 22.8549 21.1306 21.4728 22.191C20.0908 23.2514 18.3975 23.8262 16.6555 23.8264C15.3341 23.8257 14.0339 23.4941 12.8736 22.862L8.67188 23.9634ZM13.0626 21.4331L13.3037 21.582C14.3176 22.1824 15.4742 22.4996 16.6525 22.5003C18.1118 22.5006 19.5297 22.0159 20.6834 21.1225C21.8372 20.2291 22.6613 18.9776 23.0263 17.5647C23.3912 16.1519 23.2763 14.6578 22.6995 13.3174C22.1228 11.977 21.1169 10.8662 19.8401 10.1598C18.5632 9.45336 17.0878 9.19129 15.6458 9.41477C14.2038 9.63826 12.877 10.3346 11.8739 11.3944C10.8708 12.4542 10.2483 13.8173 10.1044 15.2694C9.9604 16.7215 10.3031 18.1803 11.0786 19.4164L11.2274 19.6649L10.5621 22.0925L13.0626 21.4331Z" fill="white"/>
<path fill-rule="evenodd" clip-rule="evenodd" d="M20.6434 17.7935C20.5943 17.7101 20.4618 17.661 20.2639 17.5628C20.0659 17.4646 19.094 16.9853 18.9124 16.9183C18.7308 16.8514 18.5999 16.8201 18.4659 17.0181C18.332 17.216 17.9554 17.661 17.8408 17.7935C17.7262 17.926 17.6086 17.9423 17.4121 17.8426C16.832 17.6096 16.2967 17.2778 15.83 16.8618C15.3976 16.4618 15.0269 15.9998 14.7301 15.491C14.614 15.293 14.7167 15.1933 14.8164 15.0876C14.9161 14.982 15.0144 14.8554 15.1141 14.7408C15.1959 14.641 15.2626 14.5297 15.312 14.4104C15.3381 14.3557 15.3502 14.2955 15.3474 14.235C15.3445 14.1745 15.3268 14.1156 15.2957 14.0636C15.2465 13.9654 14.8492 12.992 14.6854 12.5961C14.5217 12.2002 14.3625 12.2627 14.2389 12.2553C14.1154 12.2478 13.9919 12.2553 13.8609 12.2553C13.7592 12.2569 13.6589 12.2799 13.5666 12.3227C13.4743 12.3656 13.392 12.4272 13.3251 12.5038C13.1031 12.7143 12.927 12.9684 12.8079 13.2501C12.6888 13.5318 12.6293 13.8352 12.633 14.141C12.633 15.1144 13.3414 16.0551 13.4412 16.1875C13.5409 16.32 14.8358 18.3174 16.8198 19.1732C17.1881 19.3322 17.5647 19.4713 17.9479 19.59C18.3515 19.7125 18.778 19.7395 19.1937 19.6688C19.5732 19.6123 20.3636 19.1896 20.5332 18.7282C20.7029 18.2668 20.6925 17.8754 20.6434 17.7935Z" fill="white"/>
</g>
<defs>
<clipPath id="clip0_86_8314">
<rect width="32" height="32" fill="white" transform="translate(0.5)"/>
</clipPath>
</defs>
</svg>
