<svg width="36" height="36" viewBox="0 0 36 36" fill="none" xmlns="http://www.w3.org/2000/svg">
<rect width="36" height="36" rx="18" fill="url(#paint0_linear_1808_27227)"/>
<path d="M7.08203 28.4728L8.62543 22.8682C7.67123 21.2232 7.17067 19.3602 7.17589 17.4557C7.17589 11.4878 12.0564 6.63574 18.0475 6.63574C20.957 6.63574 23.6892 7.76184 25.7384 9.80647C27.7928 11.8511 28.9243 14.5704 28.9191 17.4609C28.9191 23.4287 24.0386 28.2808 18.0423 28.2808H18.037C16.2173 28.2808 14.4288 27.8241 12.8385 26.9627L7.08203 28.4728ZM13.1148 25.0063L13.4433 25.2035C14.8303 26.0234 16.4206 26.4541 18.0423 26.4593H18.0475C23.027 26.4593 27.0837 22.4271 27.0837 17.466C27.0837 15.0633 26.1451 12.806 24.4401 11.1038C22.735 9.4017 20.4616 8.4676 18.0475 8.4676C13.0679 8.46242 9.01128 12.4946 9.01128 17.4557C9.01128 19.1526 9.48577 20.808 10.393 22.2403L10.6068 22.5828L9.69434 25.8988L13.1148 25.0063Z" fill="white"/>
<path d="M7.46289 28.094L8.95415 22.6815C8.03124 21.0987 7.54632 19.298 7.54632 17.4609C7.55153 11.7007 12.2599 7.01465 18.0477 7.01465C20.8581 7.01465 23.4913 8.10443 25.4727 10.0764C27.4541 12.0484 28.5439 14.6742 28.5439 17.4661C28.5439 23.2264 23.8302 27.9124 18.0477 27.9124H18.0425C16.2853 27.9124 14.5594 27.4713 13.0264 26.641L7.46289 28.094Z" fill="url(#paint1_linear_1808_27227)"/>
<path d="M7.08203 28.4728L8.62543 22.8682C7.67123 21.2232 7.17067 19.3602 7.17589 17.4557C7.17589 11.4878 12.0564 6.63574 18.0475 6.63574C20.957 6.63574 23.6892 7.76184 25.7384 9.80647C27.7928 11.8511 28.9243 14.5704 28.9191 17.4609C28.9191 23.4287 24.0386 28.2808 18.0423 28.2808H18.037C16.2173 28.2808 14.4288 27.8241 12.8385 26.9627L7.08203 28.4728ZM13.1148 25.0063L13.4433 25.2035C14.8303 26.0234 16.4206 26.4541 18.0423 26.4593H18.0475C23.027 26.4593 27.0837 22.4271 27.0837 17.466C27.0837 15.0633 26.1451 12.806 24.4401 11.1038C22.735 9.4017 20.4616 8.4676 18.0475 8.4676C13.0679 8.46242 9.01128 12.4946 9.01128 17.4557C9.01128 19.1526 9.48577 20.808 10.393 22.2403L10.6068 22.5828L9.69434 25.8988L13.1148 25.0063Z" fill="url(#paint2_linear_1808_27227)"/>
<path fill-rule="evenodd" clip-rule="evenodd" d="M15.3306 12.9302C15.1273 12.4788 14.9135 12.4684 14.7206 12.4632C14.5641 12.458 14.3816 12.458 14.1991 12.458C14.0166 12.458 13.7247 12.5255 13.4744 12.7953C13.2241 13.0652 12.5254 13.719 12.5254 15.0527C12.5254 16.3812 13.5004 17.6682 13.636 17.8498C13.7716 18.0314 15.5183 20.8493 18.2766 21.9339C20.5709 22.8368 21.0402 22.6552 21.5355 22.6085C22.0309 22.5618 23.1415 21.9546 23.3709 21.3215C23.5951 20.6884 23.5951 20.1487 23.5273 20.0346C23.4595 19.9204 23.2771 19.8529 23.0059 19.718C22.7348 19.5831 21.3999 18.9292 21.1497 18.8358C20.8994 18.7476 20.7169 18.7009 20.5396 18.9707C20.3571 19.2406 19.8357 19.8477 19.6793 20.0294C19.5228 20.211 19.3612 20.2317 19.0901 20.0968C18.8189 19.9619 17.9429 19.6765 16.9053 18.7528C16.0971 18.0366 15.5496 17.1492 15.3932 16.8794C15.2368 16.6095 15.3776 16.4642 15.5131 16.3293C15.633 16.21 15.7843 16.0128 15.9198 15.8571C16.0554 15.7014 16.1023 15.5872 16.191 15.4056C16.2796 15.224 16.2379 15.0683 16.1701 14.9334C16.1023 14.8036 15.5705 13.4648 15.3306 12.9302Z" fill="white"/>
<defs>
<linearGradient id="paint0_linear_1808_27227" x1="17.9991" y1="35.9982" x2="17.9991" y2="-0.00125955" gradientUnits="userSpaceOnUse">
<stop stop-color="#20B038"/>
<stop offset="1" stop-color="#60D66A"/>
</linearGradient>
<linearGradient id="paint1_linear_1808_27227" x1="18.0028" y1="28.093" x2="18.0028" y2="7.01391" gradientUnits="userSpaceOnUse">
<stop stop-color="#20B038"/>
<stop offset="1" stop-color="#60D66A"/>
</linearGradient>
<linearGradient id="paint2_linear_1808_27227" x1="18.0027" y1="28.4707" x2="18.0027" y2="6.63574" gradientUnits="userSpaceOnUse">
<stop stop-color="#F9F9F9"/>
<stop offset="1" stop-color="white"/>
</linearGradient>
</defs>
</svg>
