<svg width="40" height="40" viewBox="0 0 40 40" fill="none" xmlns="http://www.w3.org/2000/svg">
<g clip-path="url(#clip0_1001_19990)">
<path d="M32.2511 13.8108C32.1049 13.2658 31.8179 12.7689 31.4189 12.3699C31.0199 11.971 30.523 11.6839 29.9781 11.5377C27.975 11 19.9327 11 19.9327 11C19.9327 11 11.8904 11 9.88497 11.5377C9.34065 11.6852 8.84443 11.9727 8.44565 12.3715C8.04687 12.7702 7.75943 13.2664 7.6119 13.8108C7.07421 15.8162 7.07422 20 7.07422 20C7.07422 20 7.07421 24.1838 7.6119 26.1892C7.75943 26.7336 8.04687 27.2298 8.44565 27.6285C8.84443 28.0273 9.34065 28.3148 9.88497 28.4623C11.8904 29 19.9327 29 19.9327 29C19.9327 29 27.9727 29 29.9781 28.4623C30.523 28.316 31.0199 28.029 31.4189 27.6301C31.8179 27.2311 32.1049 26.7342 32.2511 26.1892C32.7888 24.1838 32.7888 20 32.7888 20C32.7888 20 32.7888 15.8162 32.2511 13.8108ZM17.3596 23.8562V16.1438L24.0519 20L17.3596 23.8562Z" fill="#384450"/>
</g>
<defs>
<clipPath id="clip0_1001_19990">
<rect width="40.0002" height="40.0002" fill="white"/>
</clipPath>
</defs>
</svg>
