<svg width="63" height="17" viewBox="0 0 63 17" fill="none" xmlns="http://www.w3.org/2000/svg">
<g clip-path="url(#clip0_0_42213)">
<path d="M0.553211 1.6477H13.6722C13.9777 1.6477 14.2254 1.89084 14.2254 2.19078V4.72339C14.2254 5.06074 14.0763 5.38015 13.8167 5.60119L6.48047 11.6261H13.6722C13.9777 11.6261 14.2254 11.8648 14.2254 12.1647V15.0723C14.2254 15.3722 13.9777 15.6153 13.6722 15.6153H0.553211C0.247681 15.6153 0 15.3722 0 15.0723V12.5438C0 12.2064 0.149118 11.887 0.408715 11.666L7.74495 5.64109H0.553211C0.247681 5.64109 0 5.39241 0 5.09247V2.19078C0 1.89084 0.247681 1.6477 0.553211 1.6477ZM23.3703 1.15234C24.8872 1.15234 26.2396 1.48721 27.3686 2.09917C28.4976 2.71112 29.4032 3.60016 30.0266 4.70849C30.65 5.81683 30.9911 7.14446 30.9911 8.63359C30.9911 10.1227 30.65 11.4504 30.0266 12.5587C29.4032 13.667 28.4976 14.5561 27.3686 15.168C26.2396 15.78 24.8872 16.1148 23.3703 16.1148C21.8534 16.1148 20.501 15.78 19.372 15.168C18.243 14.5561 17.3374 13.667 16.714 12.5587C16.0907 11.4504 15.7496 10.1227 15.7496 8.63359C15.7496 7.14446 16.0907 5.81683 16.714 4.70849C17.3374 3.60016 18.243 2.71112 19.372 2.09917C20.501 1.48721 21.8534 1.15234 23.3703 1.15234ZM23.3703 5.14234C22.6447 5.14234 22.0077 5.29282 21.4808 5.57259C20.954 5.85237 20.5372 6.26145 20.2522 6.77868C19.9672 7.2959 19.814 7.92126 19.814 8.63359C19.814 9.34593 19.9672 9.97129 20.2522 10.4885C20.5372 11.0057 20.954 11.4148 21.4808 11.6946C22.0077 11.9744 22.6447 12.1248 23.3703 12.1248C24.0959 12.1248 24.733 11.9744 25.2598 11.6946C25.7867 11.4148 26.2034 11.0057 26.4884 10.4885C26.7734 9.97129 26.9267 9.34593 26.9267 8.63359C26.9267 7.92126 26.7734 7.2959 26.4884 6.77868C26.2034 6.26145 25.7867 5.85237 25.2598 5.57259C24.733 5.29282 24.0959 5.14234 23.3703 5.14234ZM39.6279 1.15234C41.1448 1.15234 42.4972 1.48721 43.6262 2.09917C44.7552 2.71112 45.6609 3.60016 46.2842 4.70849C46.9076 5.81683 47.2487 7.14446 47.2487 8.63359C47.2487 10.1227 46.9076 11.4504 46.2842 12.5587C45.6609 13.667 44.7552 14.5561 43.6262 15.168C42.4972 15.78 41.1448 16.1148 39.6279 16.1148C38.111 16.1148 36.7587 15.78 35.6297 15.168C34.5006 14.5561 33.595 13.667 32.9717 12.5587C32.3483 11.4504 32.0072 10.1227 32.0072 8.63359C32.0072 7.14446 32.3483 5.81683 32.9717 4.70849C33.595 3.60016 34.5006 2.71112 35.6297 2.09917C36.7587 1.48721 38.111 1.15234 39.6279 1.15234ZM39.6279 5.14234C38.9023 5.14234 38.2653 5.29282 37.7384 5.57259C37.2116 5.85237 36.7949 6.26145 36.5099 6.77868C36.2249 7.2959 36.0716 7.92126 36.0716 8.63359C36.0716 9.34593 36.2249 9.97129 36.5099 10.4885C36.7949 11.0057 37.2116 11.4148 37.7384 11.6946C38.2653 11.9744 38.9023 12.1248 39.6279 12.1248C40.3536 12.1248 40.9906 11.9744 41.5175 11.6946C42.0443 11.4148 42.461 11.0057 42.746 10.4885C43.031 9.97129 43.1843 9.34593 43.1843 8.63359C43.1843 7.92126 43.031 7.2959 42.746 6.77868C42.461 6.26145 42.0443 5.85237 41.5175 5.57259C40.9906 5.29282 40.3536 5.14234 39.6279 5.14234ZM63 2.19251V15.072C63 15.372 62.7523 15.6152 62.4468 15.6152H59.8687C59.5251 15.6152 59.1997 15.4688 58.9745 15.214L52.8373 8.01289V15.072C52.8373 15.372 52.5839 15.6152 52.2784 15.6152H49.3244C49.0188 15.6152 48.7711 15.372 48.7711 15.072V2.19251C48.7711 1.89255 49.0188 1.6494 49.3244 1.6494H51.9024C52.2461 1.6494 52.5714 1.79582 52.7966 2.05073L58.9339 9.25429V2.19251C58.9339 1.89255 59.177 1.6494 59.4826 1.6494H62.4468C62.7523 1.6494 63 1.89255 63 2.19251Z" fill="url(#paint0_linear_0_42213)"/>
</g>
<defs>
<linearGradient id="paint0_linear_0_42213" x1="1.88091e-07" y1="10.7821" x2="62.9982" y2="10.4652" gradientUnits="userSpaceOnUse">
<stop offset="0.28523" stop-color="#3E3F53"/>
<stop offset="0.762079" stop-color="#5E3BEC"/>
</linearGradient>
<clipPath id="clip0_0_42213">
<rect width="63" height="15.96" fill="white" transform="translate(0 0.652344)"/>
</clipPath>
</defs>
</svg>
